<svg xmlns="http://www.w3.org/2000/svg" xmlns:xlink="http://www.w3.org/1999/xlink" xmlns:lucid="lucid" width="1660.5" height="1020"><g transform="translate(-8.166519043401237 -8.166519043401237)" lucid:page-tab-id="0_0"><path d="M0 0h1646.33v1164.7H0z" fill="#fff"/><path d="M128.17 728.17h160v40h-160z" stroke="#000" stroke-width="2" fill="#fff"/><use xlink:href="#a" transform="matrix(1,0,0,1,133.16651904340125,733.1665190434012) translate(2.5749999999999886 18.6)"/><use xlink:href="#b" transform="matrix(1,0,0,1,133.16651904340125,733.1665190434012) translate(79.52499999999999 18.6)"/><path d="M128.17 479.68c0-2.76 1.93-6.12 4.32-7.5l71.34-41.5c2.4-1.4 6.26-1.4 8.65 0l71.34 41.5c2.4 1.38 4.33 4.74 4.33 7.5v63.5c0 2.75-2.24 5-5 5h-150c-2.76 0-5-2.25-5-5z" stroke="#000" stroke-width="2" fill="#fff"/><use xlink:href="#c" transform="matrix(1,0,0,1,128.16651904340125,428.16651904340125) translate(60.025 52.8)"/><use xlink:href="#d" transform="matrix(1,0,0,1,128.16651904340125,428.16651904340125) translate(56.5 74.4)"/><path d="M138.17 48.17h140v40h-140z" stroke="#000" stroke-opacity="0" stroke-width="2" fill="#fff" fill-opacity="0"/><use xlink:href="#e" transform="matrix(1,0,0,1,143.16651904340125,53.16651904340124) translate(14.049999999999997 18.6)"/><use xlink:href="#f" transform="matrix(1,0,0,1,143.16651904340125,53.16651904340124) translate(84.95 18.6)"/><path d="M948.17 79.68c0-2.76 1.93-6.12 4.32-7.5l71.34-41.5c2.4-1.4 6.26-1.4 8.65 0l71.34 41.5c2.4 1.38 4.33 4.74 4.33 7.5v63.5c0 2.75-2.24 5-5 5h-150c-2.76 0-5-2.25-5-5z" stroke="#000" stroke-width="2" fill="#fff"/><use xlink:href="#c" transform="matrix(1,0,0,1,948.1665190434012,28.166519043401237) translate(60.025 52.8)"/><use xlink:href="#d" transform="matrix(1,0,0,1,948.1665190434012,28.166519043401237) translate(56.5 74.4)"/><path d="M668.17 295.86c0-2.76 1.93-6.12 4.32-7.5l71.34-41.5c2.4-1.4 6.26-1.4 8.65 0l71.34 41.5c2.4 1.38 4.33 4.74 4.33 7.5v63.48c0 2.76-2.24 5-5 5h-150c-2.76 0-5-2.24-5-5z" stroke="#000" stroke-width="2" fill="#fff"/><use xlink:href="#g" transform="matrix(1,0,0,1,668.1665190434012,244.34271557031752) translate(63 52.8)"/><use xlink:href="#h" transform="matrix(1,0,0,1,668.1665190434012,244.34271557031752) translate(51.525 74.4)"/><path d="M948.17 295.35c0-2.76 1.93-6.12 4.32-7.5l71.34-41.5c2.4-1.4 6.26-1.4 8.65 0l71.34 41.5c2.4 1.38 4.33 4.74 4.33 7.5v63.48c0 2.76-2.24 5-5 5h-150c-2.76 0-5-2.24-5-5z" stroke="#000" stroke-width="2" fill="#666"/><use xlink:href="#i" transform="matrix(1,0,0,1,948.1665190434012,243.83318571008243) translate(56.5 63.6)"/><path d="M1285.23 295.86c0-2.76 1.93-6.12 4.32-7.5l71.36-41.5c2.4-1.4 6.26-1.4 8.65 0l71.36 41.5c2.4 1.38 4.33 4.74 4.33 7.5v63.48c0 2.76-2.24 5-5 5h-150c-2.76 0-5-2.24-5-5z" stroke="#000" stroke-width="2" fill="#fff"/><use xlink:href="#j" transform="matrix(1,0,0,1,1285.227478667269,244.34271557031752) translate(64.525 52.8)"/><use xlink:href="#k" transform="matrix(1,0,0,1,1285.227478667269,244.34271557031752) translate(29.074999999999996 74.4)"/><path d="M1365.23 243.84V197h-337.06v-29.33" stroke="#000" stroke-width="2" fill="none"/><path d="M1366.23 244.9l-1.4-.08-.6.08v-1.08h2z"/><path d="M1028.17 152.4l4.63 14.27h-9.27z" stroke="#000" stroke-width="2" fill="#fff"/><path d="M1028.17 243.33v-75.66" stroke="#000" stroke-width="2" fill="none"/><path d="M1029.17 244.4l-1.4-.1-.6.1v-1.1h2z"/><path d="M1028.17 152.4l4.63 14.27h-9.27z" stroke="#000" stroke-width="2" fill="#fff"/><path d="M748.17 243.84V197h280v-29.33" stroke="#000" stroke-width="2" fill="none"/><path d="M749.17 244.9l-1.4-.08-.6.08v-1.08h2z"/><path d="M1028.17 152.4l4.63 14.27h-9.27z" stroke="#000" stroke-width="2" fill="#fff"/><path d="M1447.23 350.68h39v-46.34h-38.18" stroke="#000" stroke-width="2" fill="none"/><path d="M1447.25 351.68h-1.02v-2h1.02z"/><path d="M1465.4 294.16l-17.2 10.18 17.2 10.18" stroke="#000" stroke-width="2" fill="none"/><use xlink:href="#l" transform="matrix(1,0,0,1,1494.227478667269,284.3093822369673) translate(0 14.4)"/><use xlink:href="#m" transform="matrix(1,0,0,1,1494.227478667269,284.3093822369673) translate(0 36)"/><use xlink:href="#n" transform="matrix(1,0,0,1,1494.227478667269,284.3093822369673) translate(0 57.6)"/><use xlink:href="#o" transform="matrix(1,0,0,1,1494.227478667269,284.3093822369673) translate(0 79.20000000000002)"/><path d="M668.17 499.68c0-2.76 1.93-6.12 4.32-7.5l71.34-41.5c2.4-1.4 6.26-1.4 8.65 0l71.34 41.5c2.4 1.38 4.33 4.74 4.33 7.5v63.5c0 2.75-2.24 5-5 5h-150c-2.76 0-5-2.25-5-5z" stroke="#000" stroke-width="2" fill="#666"/><use xlink:href="#p" transform="matrix(1,0,0,1,668.1665190434012,448.1665190434013) translate(17.624999999999993 52.8)"/><use xlink:href="#q" transform="matrix(1,0,0,1,668.1665190434012,448.1665190434013) translate(51.525 74.4)"/><path d="M948.17 499.68c0-2.76 1.93-6.12 4.32-7.5l71.34-41.5c2.4-1.4 6.26-1.4 8.65 0l71.34 41.5c2.4 1.38 4.33 4.74 4.33 7.5v63.5c0 2.75-2.24 5-5 5h-150c-2.76 0-5-2.25-5-5z" stroke="#000" stroke-width="2" fill="#666"/><use xlink:href="#r" transform="matrix(1,0,0,1,948.1665190434012,448.1665190434013) translate(12.625 52.8)"/><use xlink:href="#s" transform="matrix(1,0,0,1,948.1665190434012,448.1665190434013) translate(50 74.4)"/><path d="M1285.23 499.68c0-2.76 1.93-6.12 4.32-7.5l71.36-41.5c2.4-1.4 6.26-1.4 8.65 0l71.36 41.5c2.4 1.38 4.33 4.74 4.33 7.5v63.5c0 2.75-2.24 5-5 5h-150c-2.76 0-5-2.25-5-5z" stroke="#000" stroke-width="2" fill="#666"/><use xlink:href="#p" transform="matrix(1,0,0,1,1285.227478667269,448.1665190434013) translate(17.624999999999993 52.8)"/><use xlink:href="#t" transform="matrix(1,0,0,1,1285.227478667269,448.1665190434013) translate(29.074999999999996 74.4)"/><path d="M1365.23 447.67v-63.83" stroke="#000" stroke-width="2" fill="none"/><path d="M1366.23 448.74l-1.4-.1-.6.1v-1.1h2z"/><path d="M1365.23 368.58l4.63 14.26h-9.27z" stroke="#000" stroke-width="2" fill="#fff"/><path d="M1028.17 447.67V407h337.06v-23.16" stroke="#000" stroke-width="2" fill="none"/><path d="M1029.17 448.74l-1.4-.1-.6.1v-1.1h2z"/><path d="M1365.23 368.58l4.63 14.26h-9.27z" stroke="#000" stroke-width="2" fill="#fff"/><path d="M748.17 447.67v-63.83" stroke="#000" stroke-width="2" fill="none"/><path d="M749.17 448.74l-1.4-.1-.6.1v-1.1h2z"/><path d="M748.17 368.58l4.63 14.26h-9.27z" stroke="#000" stroke-width="2" fill="#fff"/><path d="M748.17 447.67v-40.92H983.5v-23.4" stroke="#000" stroke-width="2" fill="none"/><path d="M749.17 448.74l-1.4-.1-.6.1v-1.1h2z"/><path d="M983.5 368.07l4.64 14.27h-9.28z" stroke="#000" stroke-width="2" fill="#fff"/><path d="M1028.17 447.67v-64.33" stroke="#000" stroke-width="2" fill="none"/><path d="M1029.17 448.74l-1.4-.1-.6.1v-1.1h2z"/><path d="M1028.17 368.07l4.63 14.27h-9.27z" stroke="#000" stroke-width="2" fill="#fff"/><path d="M128.17 105.17c0-2.76 2.24-5 5-5h150c2.76 0 5 2.24 5 5v110c0 2.76-2.24 5-5 5h-150c-2.76 0-5-2.24-5-5z" stroke="#000" stroke-width="2" fill-opacity="0"/><use xlink:href="#u" transform="matrix(1,0,0,1,136.16651904340125,108.16651904340125) translate(26.9 55.6)"/><use xlink:href="#v" transform="matrix(1,0,0,1,136.16651904340125,108.16651904340125) translate(72.19999999999999 55.6)"/><path d="M668.17 893.17c0-2.76 2.24-5 5-5h150c2.76 0 5 2.24 5 5v110c0 2.76-2.24 5-5 5h-150c-2.76 0-5-2.24-5-5z" stroke="#000" stroke-width="2" fill="#666"/><use xlink:href="#w" transform="matrix(1,0,0,1,676.1665190434012,896.16651904344) translate(54.525 55.6)"/><path d="M668.17 673.17c0-2.76 2.24-5 5-5h150c2.76 0 5 2.24 5 5v110c0 2.76-2.24 5-5 5h-150c-2.76 0-5-2.24-5-5z" stroke="#000" stroke-width="2" fill="#666"/><use xlink:href="#x" transform="matrix(1,0,0,1,676.1665190434012,676.1665190434012) translate(46.55 55.6)"/><path d="M428.17 673.17c0-2.76 2.24-5 5-5h150c2.76 0 5 2.24 5 5v110c0 2.76-2.24 5-5 5h-150c-2.76 0-5-2.24-5-5z" stroke="#000" stroke-width="2" fill-opacity="0"/><use xlink:href="#y" transform="matrix(1,0,0,1,436.16651904340125,676.1665190434012) translate(57.5 44.8)"/><use xlink:href="#z" transform="matrix(1,0,0,1,436.16651904340125,676.1665190434012) translate(32.599999999999994 66.4)"/><path d="M666.17 728.17h-58.5" stroke="#000" stroke-width="2" fill="none"/><path d="M667.17 729.17h-1.03v-2h1.03z"/><path d="M592.4 728.17l14.27-4.64v9.27z" stroke="#000" stroke-width="2" fill="#fff"/><path d="M28.17 293.17c0-2.76 2.24-5 5-5h150c2.76 0 5 2.24 5 5v110c0 2.76-2.24 5-5 5h-150c-2.76 0-5-2.24-5-5z" stroke="#000" stroke-width="2" fill="#ccc"/><use xlink:href="#A" transform="matrix(1,0,0,1,36.16651904340124,296.16651904340125) translate(19.599999999999994 55.6)"/><use xlink:href="#v" transform="matrix(1,0,0,1,36.16651904340124,296.16651904340125) translate(79.5 55.6)"/><path d="M428.17 893.17c0-2.76 2.24-5 5-5h150c2.76 0 5 2.24 5 5v110c0 2.76-2.24 5-5 5h-150c-2.76 0-5-2.24-5-5z" stroke="#000" stroke-width="2" fill="#ccc"/><use xlink:href="#B" transform="matrix(1,0,0,1,436.16651904340125,896.16651904344) translate(52.05 44.8)"/><use xlink:href="#C" transform="matrix(1,0,0,1,436.16651904340125,896.16651904344) translate(43.05 66.4)"/><path d="M666.17 948.17h-58.5" stroke="#000" stroke-width="2" fill="none"/><path d="M667.17 949.17h-1.03v-2h1.03z"/><path d="M592.4 948.17l14.27-4.64v9.27z" stroke="#000" stroke-width="2" fill="#fff"/><path d="M948.17 673.17c0-2.76 2.24-5 5-5h150c2.76 0 5 2.24 5 5v110c0 2.76-2.24 5-5 5h-150c-2.76 0-5-2.24-5-5z" stroke="#000" stroke-width="2" fill="#666"/><use xlink:href="#D" transform="matrix(1,0,0,1,956.1665190434012,676.1665190434012) translate(37.55 55.6)"/><path d="M1029.17 666.17h-2v-19.74h2zm0-62.94h-2v-32.25h2z"/><path d="M1029.17 667.17h-2v-1.03h2zM1039.2 587.84l-1.7 1-9.33-15.74-9.32 15.75-1.73-1 11.05-18.68z"/><use xlink:href="#E" transform="matrix(1,0,0,1,966.2665190434012,603.2331857100678) translate(11.455000000000005 14.4)"/><use xlink:href="#F" transform="matrix(1,0,0,1,966.2665190434012,603.2331857100678) translate(29.405000000000005 14.4)"/><use xlink:href="#G" transform="matrix(1,0,0,1,966.2665190434012,603.2331857100678) translate(97.35500000000002 14.4)"/><use xlink:href="#H" transform="matrix(1,0,0,1,966.2665190434012,603.2331857100678) translate(0.005000000000002558 36)"/><use xlink:href="#I" transform="matrix(1,0,0,1,966.2665190434012,603.2331857100678) translate(17.955000000000002 36)"/><use xlink:href="#J" transform="matrix(1,0,0,1,966.2665190434012,603.2331857100678) translate(104.805 36)"/><path d="M1126.32 509.17h-16.15v-2h16.15zm156.1 0h-35.25v-2h35.24z"/><path d="M1110.2 509.17h-1.03v-2h1.02zM1284.23 508.17l-18.67 11.04-1.02-1.7 15.76-9.33-15.76-9.32 1.02-1.73z"/><use xlink:href="#K" transform="matrix(1,0,0,1,1126.320213036924,464.96651904338194) translate(30.455000000000005 14.4)"/><use xlink:href="#L" transform="matrix(1,0,0,1,1126.320213036924,464.96651904338194) translate(0.005000000000002558 36)"/><use xlink:href="#m" transform="matrix(1,0,0,1,1126.320213036924,464.96651904338194) translate(60.43000000000001 57.6)"/><use xlink:href="#M" transform="matrix(1,0,0,1,1126.320213036924,464.96651904338194) translate(19.480000000000004 79.20000000000002)"/><use xlink:href="#N" transform="matrix(1,0,0,1,1126.320213036924,464.96651904338194) translate(50.43000000000001 79.20000000000002)"/><use xlink:href="#O" transform="matrix(1,0,0,1,1126.320213036924,464.96651904338194) translate(86.38000000000001 79.20000000000002)"/><path d="M749.17 666.17h-2v-7.74h2zm0-50.94h-2v-44.25h2z"/><path d="M749.17 667.17h-2v-1.03h2zM759.2 587.84l-1.7 1-9.33-15.74-9.32 15.75-1.73-1 11.05-18.68z"/><path d="M749.17 666.17h-2v-7.74h2zm196.18-157h-56.18v100h-140v6.06h-2v-8.06h140v-100h58.18z"/><path d="M749.17 667.17h-2v-1.03h2zM947.17 508.17L928.5 519.2l-1.02-1.7 15.76-9.33-15.76-9.32 1.02-1.73z"/><use xlink:href="#P" transform="matrix(1,0,0,1,697.2165190434011,615.2331857100678) translate(8.505000000000003 14.4)"/><use xlink:href="#H" transform="matrix(1,0,0,1,697.2165190434011,615.2331857100678) translate(0.005000000000002558 36)"/><use xlink:href="#Q" transform="matrix(1,0,0,1,697.2165190434011,615.2331857100678) translate(17.955000000000002 36)"/><use xlink:href="#J" transform="matrix(1,0,0,1,697.2165190434011,615.2331857100678) translate(82.905 36)"/><path d="M749.17 885.35h-2v-34.12h2zm0-77.32h-2v-17.86h2z"/><path d="M749.17 790.2h-2v-1.03h2zM759.2 868.5l-11.03 18.67-11.05-18.67 1.73-1.02 9.32 15.76 9.32-15.76z"/><use xlink:href="#R" transform="matrix(1,0,0,1,702.6915190434012,808.0331857100681) translate(0.005000000000002558 14.4)"/><use xlink:href="#S" transform="matrix(1,0,0,1,702.6915190434012,808.0331857100681) translate(12.005000000000003 36)"/><path d="M1388.17 893.17c0-2.76 2.24-5 5-5h150c2.76 0 5 2.24 5 5v110c0 2.76-2.24 5-5 5h-150c-2.76 0-5-2.24-5-5z" stroke="#000" stroke-width="2" fill="#666"/><use xlink:href="#T" transform="matrix(1,0,0,1,1396.1665190434012,896.1665190434398) translate(35.775 55.6)"/><path d="M1288.17 673.17c0-2.76 2.24-5 5-5h150c2.76 0 5 2.24 5 5v110c0 2.76-2.24 5-5 5h-150c-2.76 0-5-2.24-5-5z" stroke="#000" stroke-width="2" fill="#666"/><use xlink:href="#U" transform="matrix(1,0,0,1,1296.1665190434012,676.1665190434012) translate(22.599999999999994 55.6)"/><path d="M1188.17 893.17c0-2.76 2.24-5 5-5h150c2.76 0 5 2.24 5 5v110c0 2.76-2.24 5-5 5h-150c-2.76 0-5-2.24-5-5z" stroke="#000" stroke-width="2" fill-opacity="0"/><use xlink:href="#V" transform="matrix(1,0,0,1,1196.1665190434012,896.1665190434398) translate(56.525 44.8)"/><use xlink:href="#W" transform="matrix(1,0,0,1,1196.1665190434012,896.1665190434398) translate(22.599999999999994 66.4)"/><path d="M1468.17 886.17v-48h-100v-30.5" stroke="#000" stroke-width="2" fill="none"/><path d="M1469.17 887.17h-2v-1.03h2z"/><path d="M1368.17 792.4l4.63 14.27h-9.27z" stroke="#000" stroke-width="2" fill="#fff"/><path d="M1268.17 886.17v-48h100v-30.5" stroke="#000" stroke-width="2" fill="none"/><path d="M1269.17 887.17h-2v-1.03h2z"/><path d="M1368.17 792.4l4.63 14.27h-9.27z" stroke="#000" stroke-width="2" fill="#fff"/><path d="M428.17 249.34c0-2.76 2.24-5 5-5h150c2.76 0 5 2.24 5 5v110c0 2.76-2.24 5-5 5h-150c-2.76 0-5-2.24-5-5z" stroke="#000" stroke-width="2" fill="#666"/><use xlink:href="#X" transform="matrix(1,0,0,1,436.16651904340125,252.34271557031752) translate(36.55 55.6)"/><path d="M509.17 567.17h-2v-75.34h2zm0-96.94h-2V367.16h2z"/><path d="M519.2 384l-1.7 1.03-9.33-15.76-9.32 15.76-1.73-1.02 11.05-18.66zM509.17 568.17h-2v-1.03h2z"/><use xlink:href="#Y" transform="matrix(1,0,0,1,456.19151904340123,470.227403477188) translate(0 14.4)"/><use xlink:href="#Z" transform="matrix(1,0,0,1,456.19151904340123,470.227403477188) translate(84.95 14.4)"/><path d="M228.17 293.17c0-2.76 2.24-5 5-5h150c2.76 0 5 2.24 5 5v110c0 2.76-2.24 5-5 5h-150c-2.76 0-5-2.24-5-5z" stroke="#000" stroke-width="2" fill="#666"/><use xlink:href="#aa" transform="matrix(1,0,0,1,236.16651904340125,296.16651904340125) translate(28.099999999999994 55.6)"/><use xlink:href="#ab" transform="matrix(1,0,0,1,236.16651904340125,296.16651904340125) translate(71 55.6)"/><path d="M308.17 286.17v-32h-100v-31.2" fill="none"/><path d="M308.17 286.17v-1.95m0-7.77v-3.88m0-7.77v-3.9m-1.03-6.73h-3.88m-7.77 0h-3.9m-7.77 0h-3.9m-7.76 0h-3.88m-7.78 0h-3.9m-7.76 0h-3.88m-7.77 0h-3.88m-7.77 0h-3.88m-7.78 0H210m-1.83-5.93v-3.9m0-7.76v-3.88m0-7.77v-1.95" stroke="#000" stroke-width="2" fill="none"/><path d="M309.17 287.17h-2v-1.03h2z"/><path d="M218.35 240.35l-10.18-17.22L198 240.35" stroke="#000" stroke-width="2" fill="none"/><path d="M108.17 286.17v-32h100v-31.2" fill="none"/><path d="M108.17 286.17v-1.95m0-7.77v-3.88m0-7.77v-3.9m1.02-6.73h3.88m7.77 0h3.88m7.77 0h3.9m7.76 0h3.88m7.77 0h3.9m7.77 0h3.9m7.76 0H183m7.78 0h3.9m7.76 0h3.88m1.85-5.93v-3.9m0-7.76v-3.88m0-7.77v-1.95" stroke="#000" stroke-width="2" fill="none"/><path d="M109.17 287.17h-2v-1.03h2z"/><path d="M218.35 240.35l-10.18-17.22L198 240.35" stroke="#000" stroke-width="2" fill="none"/><path d="M159.57 669.17h-22.9v-2h22.9zm137.6 0h-9.75v-2h9.75z"/><path d="M298.17 669.17h-1.03v-2h1.03z"/><path d="M135.67 672.8l-14.27-4.63 14.27-4.64z" fill="#fff"/><path d="M136.67 674.18l-18.5-6 18.5-6.03zm-12.03-6l10.03 3.25v-6.52z"/><g><use xlink:href="#ac" transform="matrix(1,0,0,1,159.5748523767345,657.3665190434012) translate(0.005000000000002558 14.4)"/></g><path d="M297.17 630.77h-1.97v-2h1.97zm-9.85 0h-3.93v-2h3.92zm-11.8 0h-3.95v-2h3.94zm-11.82 0h-3.94v-2h3.94zm-70.87 0h-3.94v-2h3.93zm-11.82 0h-3.92v-2H181zm-11.8 0h-3.94v-2h3.94zm-11.8 0h-3.95v-2h3.94zm-11.82 0h-3.94v-2h3.94zm-11.8 0h-3.95v-2h3.94zm-11.83 0h-1.97v-2h1.97z"/><path d="M298.17 630.77h-1.03v-2h1.03zM137.85 620.45l-15.75 9.32 15.75 9.32-1 1.7-18.68-11.03 18.67-11.05z"/><g><use xlink:href="#ad" transform="matrix(1,0,0,1,193.52485237673451,618.9665190434011) translate(0.004999999999999005 14.4)"/></g><path d="M173.6 589.17h-53.62v-2h53.62zm123.57 0H273.4v-2h23.77z"/><path d="M298.17 589.17h-1.03v-2h1.03zM137.85 578.85l-15.75 9.32 15.75 9.32-1 1.7-18.68-11.03 18.67-11.05z"/><g><use xlink:href="#ae" transform="matrix(1,0,0,1,173.5998523767345,577.3665190434011) translate(0.005000000000002558 14.4)"/></g><path d="M1508.5 885.35h-2V628.17h-416.43v-2h418.43zm-479.33-219.18h-2v-19.74h2z"/><path d="M1029.17 667.17h-2v-1.03h2zM1518.54 868.5l-11.04 18.67-11.04-18.67 1.72-1.02 9.32 15.76 9.32-15.76z"/><path d="M1068.17 188.17h20v44.33h-20z" stroke="#fff" stroke-width="2" fill="#fff"/><path d="M1619.17 949.17h-69v-2h67v-346h2zm0-369.6h-2v-410.4h-536.44v101.67h-2V167.17h540.44z"/><path d="M1550.2 949.17h-1.03v-2h1.02zM1090.77 254l-11.04 18.66-11.05-18.67 1.73-1.03 9.33 15.76 9.32-15.76z"/><g><use xlink:href="#af" transform="matrix(1,0,0,1,1578.6665190434012,579.5818754246825) translate(0 14.4)"/><use xlink:href="#ag" transform="matrix(1,0,0,1,1578.6665190434012,579.5818754246825) translate(34 14.4)"/></g><path d="M948.17 893.17c0-2.76 2.24-5 5-5h150c2.76 0 5 2.24 5 5v110c0 2.76-2.24 5-5 5h-150c-2.76 0-5-2.24-5-5z" stroke="#000" stroke-width="2" fill="#ccc"/><g><use xlink:href="#B" transform="matrix(1,0,0,1,956.1665190434012,896.1665190434398) translate(52.05 44.8)"/><use xlink:href="#ah" transform="matrix(1,0,0,1,956.1665190434012,896.1665190434398) translate(37.55 66.4)"/></g><path d="M1028.17 790.17v78.5" stroke="#000" stroke-width="2" fill="none"/><path d="M1029.17 790.2h-2v-1.03h2z"/><path d="M1028.17 883.93l-4.64-14.27h9.27z" stroke="#000" stroke-width="2" fill="#fff"/><path d="M208.17 427.67V223" fill="none"/><path d="M208.17 427.67v-2m0-8.04v-4m0-8.04v-4.02m0-8.03v-4m0-8.04v-4m0-8.03v-4m0-8.04v-4m0-8.04v-4.02m0-8.03v-4m0-8.04v-4m0-8.03v-4m0-8.04v-4m0-8.04v-4.02m0-8.03v-4m0-8.04v-4m0-8.03v-4m0-8.04v-4m0-8.04v-2" stroke="#000" stroke-width="2" fill="none"/><path d="M209.17 428.74l-1.4-.1-.6.1v-1.1h2z"/><path d="M218.35 240.35l-10.18-17.22L198 240.35" stroke="#000" stroke-width="2" fill="none"/><defs><path d="M30-248c118-7 216 8 213 122C240-48 200 0 122 0H30v-248zM63-27c89 8 146-16 146-99s-60-101-146-95v194" id="ai"/><path d="M141-36C126-15 110 5 73 4 37 3 15-17 15-53c-1-64 63-63 125-63 3-35-9-54-41-54-24 1-41 7-42 31l-33-3c5-37 33-52 76-52 45 0 72 20 72 64v82c-1 20 7 32 28 27v20c-31 9-61-2-59-35zM48-53c0 20 12 33 32 33 41-3 63-29 60-74-43 2-92-5-92 41" id="aj"/><path d="M59-47c-2 24 18 29 38 22v24C64 9 27 4 27-40v-127H5v-23h24l9-43h21v43h35v23H59v120" id="ak"/><path d="M179-190L93 31C79 59 56 82 12 73V49c39 6 53-20 64-50L1-190h34L92-34l54-156h33" id="al"/><path d="M115-194c55 1 70 41 70 98S169 2 115 4C84 4 66-9 55-30l1 105H24l-1-265h31l2 30c10-21 28-34 59-34zm-8 174c40 0 45-34 45-75s-6-73-45-74c-42 0-51 32-51 76 0 43 10 73 51 73" id="am"/><path d="M100-194c63 0 86 42 84 106H49c0 40 14 67 53 68 26 1 43-12 49-29l28 8c-11 28-37 45-77 45C44 4 14-33 15-96c1-61 26-98 85-98zm52 81c6-60-76-77-97-28-3 7-6 17-6 28h103" id="an"/><g id="a"><use transform="matrix(0.05,0,0,0.05,0,0)" xlink:href="#ai"/><use transform="matrix(0.05,0,0,0.05,12.950000000000001,0)" xlink:href="#aj"/><use transform="matrix(0.05,0,0,0.05,22.950000000000003,0)" xlink:href="#ak"/><use transform="matrix(0.05,0,0,0.05,27.950000000000003,0)" xlink:href="#aj"/><use transform="matrix(0.05,0,0,0.05,37.95,0)" xlink:href="#ak"/><use transform="matrix(0.05,0,0,0.05,42.95,0)" xlink:href="#al"/><use transform="matrix(0.05,0,0,0.05,51.95,0)" xlink:href="#am"/><use transform="matrix(0.05,0,0,0.05,61.95,0)" xlink:href="#an"/></g><path d="M30-248c87 1 191-15 191 75 0 78-77 80-158 76V0H30v-248zm33 125c57 0 124 11 124-50 0-59-68-47-124-48v98" id="ao"/><path d="M114-163C36-179 61-72 57 0H25l-1-190h30c1 12-1 29 2 39 6-27 23-49 58-41v29" id="ap"/><path d="M100-194c62-1 85 37 85 99 1 63-27 99-86 99S16-35 15-95c0-66 28-99 85-99zM99-20c44 1 53-31 53-75 0-43-8-75-51-75s-53 32-53 75 10 74 51 75" id="aq"/><g id="b"><use transform="matrix(0.05,0,0,0.05,0,0)" xlink:href="#ao"/><use transform="matrix(0.05,0,0,0.05,12,0)" xlink:href="#ap"/><use transform="matrix(0.05,0,0,0.05,17.95,0)" xlink:href="#aq"/><use transform="matrix(0.05,0,0,0.05,27.950000000000003,0)" xlink:href="#am"/><use transform="matrix(0.05,0,0,0.05,37.95,0)" xlink:href="#an"/><use transform="matrix(0.05,0,0,0.05,47.95,0)" xlink:href="#ap"/><use transform="matrix(0.05,0,0,0.05,53.900000000000006,0)" xlink:href="#ak"/><use transform="matrix(0.05,0,0,0.05,58.900000000000006,0)" xlink:href="#al"/></g><path d="M108 0H70L1-190h34L89-25l56-165h34" id="ar"/><path d="M33-154v-36h34v36H33zM33 0v-36h34V0H33" id="as"/><g id="c"><use transform="matrix(0.05,0,0,0.05,0,0)" xlink:href="#am"/><use transform="matrix(0.05,0,0,0.05,10,0)" xlink:href="#ap"/><use transform="matrix(0.05,0,0,0.05,15.949999999999998,0)" xlink:href="#aq"/><use transform="matrix(0.05,0,0,0.05,25.950000000000003,0)" xlink:href="#ar"/><use transform="matrix(0.05,0,0,0.05,34.95,0)" xlink:href="#as"/></g><path d="M205 0l-28-72H64L36 0H1l101-248h38L239 0h-34zm-38-99l-47-123c-12 45-31 82-46 123h93" id="at"/><path d="M177-190C167-65 218 103 67 71c-23-6-38-20-44-43l32-5c15 47 100 32 89-28v-30C133-14 115 1 83 1 29 1 15-40 15-95c0-56 16-97 71-98 29-1 48 16 59 35 1-10 0-23 2-32h30zM94-22c36 0 50-32 50-73 0-42-14-75-50-75-39 0-46 34-46 75s6 73 46 73" id="au"/><path d="M117-194c89-4 53 116 60 194h-32v-121c0-31-8-49-39-48C34-167 62-67 57 0H25l-1-190h30c1 10-1 24 2 32 11-22 29-35 61-36" id="av"/><g id="d"><use transform="matrix(0.05,0,0,0.05,0,0)" xlink:href="#at"/><use transform="matrix(0.05,0,0,0.05,12,0)" xlink:href="#au"/><use transform="matrix(0.05,0,0,0.05,22,0)" xlink:href="#an"/><use transform="matrix(0.05,0,0,0.05,32,0)" xlink:href="#av"/><use transform="matrix(0.05,0,0,0.05,42,0)" xlink:href="#ak"/></g><path d="M30 0v-248h187v28H63v79h144v27H63v87h162V0H30" id="aw"/><path d="M24 0v-261h32V0H24" id="ax"/><path d="M210-169c-67 3-38 105-44 169h-31v-121c0-29-5-50-35-48C34-165 62-65 56 0H25l-1-190h30c1 10-1 24 2 32 10-44 99-50 107 0 11-21 27-35 58-36 85-2 47 119 55 194h-31v-121c0-29-5-49-35-48" id="ay"/><g id="e"><use transform="matrix(0.05,0,0,0.05,0,0)" xlink:href="#aw"/><use transform="matrix(0.05,0,0,0.05,12,0)" xlink:href="#ax"/><use transform="matrix(0.05,0,0,0.05,15.949999999999998,0)" xlink:href="#an"/><use transform="matrix(0.05,0,0,0.05,25.950000000000003,0)" xlink:href="#ay"/><use transform="matrix(0.05,0,0,0.05,40.9,0)" xlink:href="#an"/><use transform="matrix(0.05,0,0,0.05,50.9,0)" xlink:href="#av"/><use transform="matrix(0.05,0,0,0.05,60.900000000000006,0)" xlink:href="#ak"/><path d="M-.9 1.25h72.7v1.32H-.9z"/></g><path d="M194 0L95-120 63-95V0H30v-248h33v124l119-124h40L117-140 236 0h-42" id="az"/><g id="f"><use transform="matrix(0.05,0,0,0.05,0,0)" xlink:href="#az"/><use transform="matrix(0.05,0,0,0.05,12,0)" xlink:href="#an"/><use transform="matrix(0.05,0,0,0.05,22,0)" xlink:href="#al"/><path d="M-.9 1.25h32.8v1.32H-.9z"/></g><path d="M135-143c-3-34-86-38-87 0 15 53 115 12 119 90S17 21 10-45l28-5c4 36 97 45 98 0-10-56-113-15-118-90-4-57 82-63 122-42 12 7 21 19 24 35" id="aA"/><path d="M85-194c31 0 48 13 60 33l-1-100h32l1 261h-30c-2-10 0-23-3-31C134-8 116 4 85 4 32 4 16-35 15-94c0-66 23-100 70-100zm9 24c-40 0-46 34-46 75 0 40 6 74 45 74 42 0 51-32 51-76 0-42-9-74-50-73" id="aB"/><g id="g"><use transform="matrix(0.05,0,0,0.05,0,0)" xlink:href="#aA"/><use transform="matrix(0.05,0,0,0.05,9,0)" xlink:href="#aB"/><use transform="matrix(0.05,0,0,0.05,19,0)" xlink:href="#aq"/><use transform="matrix(0.05,0,0,0.05,29,0)" xlink:href="#as"/></g><g id="h"><use transform="matrix(0.05,0,0,0.05,0,0)" xlink:href="#ao"/><use transform="matrix(0.05,0,0,0.05,12,0)" xlink:href="#an"/><use transform="matrix(0.05,0,0,0.05,22,0)" xlink:href="#ap"/><use transform="matrix(0.05,0,0,0.05,27.950000000000003,0)" xlink:href="#aA"/><use transform="matrix(0.05,0,0,0.05,36.95,0)" xlink:href="#aq"/><use transform="matrix(0.05,0,0,0.05,46.95,0)" xlink:href="#av"/></g><path fill="#fff" d="M205 0l-28-72H64L36 0H1l101-248h38L239 0h-34zm-38-99l-47-123c-12 45-31 82-46 123h93" id="aC"/><path fill="#fff" d="M177-190C167-65 218 103 67 71c-23-6-38-20-44-43l32-5c15 47 100 32 89-28v-30C133-14 115 1 83 1 29 1 15-40 15-95c0-56 16-97 71-98 29-1 48 16 59 35 1-10 0-23 2-32h30zM94-22c36 0 50-32 50-73 0-42-14-75-50-75-39 0-46 34-46 75s6 73 46 73" id="aD"/><path fill="#fff" d="M100-194c63 0 86 42 84 106H49c0 40 14 67 53 68 26 1 43-12 49-29l28 8c-11 28-37 45-77 45C44 4 14-33 15-96c1-61 26-98 85-98zm52 81c6-60-76-77-97-28-3 7-6 17-6 28h103" id="aE"/><path fill="#fff" d="M117-194c89-4 53 116 60 194h-32v-121c0-31-8-49-39-48C34-167 62-67 57 0H25l-1-190h30c1 10-1 24 2 32 11-22 29-35 61-36" id="aF"/><path fill="#fff" d="M59-47c-2 24 18 29 38 22v24C64 9 27 4 27-40v-127H5v-23h24l9-43h21v43h35v23H59v120" id="aG"/><g id="i"><use transform="matrix(0.05,0,0,0.05,0,0)" xlink:href="#aC"/><use transform="matrix(0.05,0,0,0.05,12,0)" xlink:href="#aD"/><use transform="matrix(0.05,0,0,0.05,22,0)" xlink:href="#aE"/><use transform="matrix(0.05,0,0,0.05,32,0)" xlink:href="#aF"/><use transform="matrix(0.05,0,0,0.05,42,0)" xlink:href="#aG"/></g><g id="j"><use transform="matrix(0.05,0,0,0.05,0,0)" xlink:href="#aq"/><use transform="matrix(0.05,0,0,0.05,10,0)" xlink:href="#ap"/><use transform="matrix(0.05,0,0,0.05,15.949999999999998,0)" xlink:href="#au"/><use transform="matrix(0.05,0,0,0.05,25.950000000000003,0)" xlink:href="#as"/></g><path d="M140-251c81 0 123 46 123 126C263-46 219 4 140 4 59 4 17-45 17-125s42-126 123-126zm0 227c63 0 89-41 89-101s-29-99-89-99c-61 0-89 39-89 99S79-25 140-24" id="aH"/><path d="M24-231v-30h32v30H24zM24 0v-190h32V0H24" id="aI"/><path d="M9 0v-24l116-142H16v-24h144v24L44-24h123V0H9" id="aJ"/><g id="k"><use transform="matrix(0.05,0,0,0.05,0,0)" xlink:href="#aH"/><use transform="matrix(0.05,0,0,0.05,14,0)" xlink:href="#ap"/><use transform="matrix(0.05,0,0,0.05,19.95,0)" xlink:href="#au"/><use transform="matrix(0.05,0,0,0.05,29.950000000000003,0)" xlink:href="#aj"/><use transform="matrix(0.05,0,0,0.05,39.95,0)" xlink:href="#av"/><use transform="matrix(0.05,0,0,0.05,49.95,0)" xlink:href="#aI"/><use transform="matrix(0.05,0,0,0.05,53.900000000000006,0)" xlink:href="#aJ"/><use transform="matrix(0.05,0,0,0.05,62.900000000000006,0)" xlink:href="#aj"/><use transform="matrix(0.05,0,0,0.05,72.9,0)" xlink:href="#ak"/><use transform="matrix(0.05,0,0,0.05,77.9,0)" xlink:href="#aI"/><use transform="matrix(0.05,0,0,0.05,81.85000000000001,0)" xlink:href="#aq"/><use transform="matrix(0.05,0,0,0.05,91.85000000000001,0)" xlink:href="#av"/></g><path d="M143 0L79-87 56-68V0H24v-261h32v163l83-92h37l-77 82L181 0h-38" id="aK"/><path d="M127-220V0H93v-220H8v-28h204v28h-85" id="aL"/><g id="l"><use transform="matrix(0.05,0,0,0.05,0,0)" xlink:href="#aq"/><use transform="matrix(0.05,0,0,0.05,10,0)" xlink:href="#ap"/><use transform="matrix(0.05,0,0,0.05,15.949999999999998,0)" xlink:href="#au"/><use transform="matrix(0.05,0,0,0.05,25.950000000000003,0)" xlink:href="#as"/><use transform="matrix(0.05,0,0,0.05,30.950000000000003,0)" xlink:href="#ax"/><use transform="matrix(0.05,0,0,0.05,34.9,0)" xlink:href="#aI"/><use transform="matrix(0.05,0,0,0.05,38.85,0)" xlink:href="#av"/><use transform="matrix(0.05,0,0,0.05,48.85,0)" xlink:href="#aK"/><use transform="matrix(0.05,0,0,0.05,57.85,0)" xlink:href="#an"/><use transform="matrix(0.05,0,0,0.05,67.85,0)" xlink:href="#aB"/><use transform="matrix(0.05,0,0,0.05,77.85,0)" xlink:href="#aL"/><use transform="matrix(0.05,0,0,0.05,86.8,0)" xlink:href="#aq"/></g><path d="M66-151c12-25 30-51 66-40l-6 26C45-176 58-65 38 0H6l36-190h30" id="aM"/><path d="M111-194c62-3 86 47 72 106H45c-7 38 6 69 45 68 27-1 43-14 53-32l24 11C152-15 129 4 87 4 38 3 12-23 12-71c0-70 32-119 99-123zm44 81c14-66-71-72-95-28-4 8-8 17-11 28h106" id="aN"/><path d="M6 0l50-261h32L37 0H6" id="aO"/><path d="M165-48c-4 18 1 34 23 27l-3 20c-29 8-62 0-52-35h-2C116-14 99 4 63 4 30 4 8-16 8-49c0-68 71-67 138-67 10-26 0-56-31-54-26 1-42 9-47 31l-32-5c8-67 160-71 144 15-5 28-9 54-15 81zM42-50c3 52 80 24 89-6 7-12 7-24 11-38-47 1-103-4-100 44" id="aP"/><path d="M51-54c-9 22 5 41 31 30L79-1C43 14 10-4 19-52l22-115H19l5-23h22l19-43h21l-9 43h35l-4 23H73" id="aQ"/><path d="M133-28C103 26-5 8 13-77c13-62 24-115 90-117 29-1 46 15 56 35l19-102h32L160 0h-30zM45-64c-2 27 10 43 35 43 54-1 69-50 69-103 0-29-15-46-42-46-53-1-58 58-62 106" id="aR"/><g id="n"><use transform="matrix(0.05,0,0,0.05,0,0)" xlink:href="#aM"/><use transform="matrix(0.05,0,0,0.05,5.95,0)" xlink:href="#aN"/><use transform="matrix(0.05,0,0,0.05,15.949999999999998,0)" xlink:href="#aO"/><use transform="matrix(0.05,0,0,0.05,19.9,0)" xlink:href="#aP"/><use transform="matrix(0.05,0,0,0.05,29.899999999999995,0)" xlink:href="#aQ"/><use transform="matrix(0.05,0,0,0.05,34.9,0)" xlink:href="#aN"/><use transform="matrix(0.05,0,0,0.05,44.9,0)" xlink:href="#aR"/></g><path d="M30-147c31-64 166-65 159 27C183-49 158 1 86 4 9 8 1-88 30-147zM88-20c53 0 68-48 68-100 0-31-11-51-44-50-52 1-68 46-68 97 0 32 13 53 44 53" id="aS"/><path d="M103-194c29 0 47 14 56 36 2-11 5-23 8-32h30L160-5C157 61 82 97 21 62 9 55 4 45 1 30l28-7c7 42 83 31 92-3 4-16 9-38 13-55-13 20-29 36-62 36-40 0-60-25-60-64 0-71 23-131 91-131zm4 24c-53 0-58 54-61 104-2 27 10 44 36 44 49 0 65-50 67-102 1-29-15-46-42-46" id="aT"/><path d="M67-158c22-48 132-52 116 29L158 0h-32l25-140c3-38-53-32-70-12C52-117 51-52 38 0H6l36-190h30" id="aU"/><path d="M50-231l6-30h32l-6 30H50zM6 0l37-190h31L37 0H6" id="aV"/><path d="M-8 0l5-24 140-142H31l5-24h145l-5 24L36-24h119l-5 24H-8" id="aW"/><g id="o"><use transform="matrix(0.05,0,0,0.05,0,0)" xlink:href="#aS"/><use transform="matrix(0.05,0,0,0.05,10,0)" xlink:href="#aM"/><use transform="matrix(0.05,0,0,0.05,15.949999999999998,0)" xlink:href="#aT"/><use transform="matrix(0.05,0,0,0.05,25.950000000000003,0)" xlink:href="#aP"/><use transform="matrix(0.05,0,0,0.05,35.95,0)" xlink:href="#aU"/><use transform="matrix(0.05,0,0,0.05,45.95,0)" xlink:href="#aV"/><use transform="matrix(0.05,0,0,0.05,49.900000000000006,0)" xlink:href="#aW"/><use transform="matrix(0.05,0,0,0.05,58.900000000000006,0)" xlink:href="#aP"/><use transform="matrix(0.05,0,0,0.05,68.9,0)" xlink:href="#aQ"/><use transform="matrix(0.05,0,0,0.05,73.9,0)" xlink:href="#aV"/><use transform="matrix(0.05,0,0,0.05,77.85000000000001,0)" xlink:href="#aS"/><use transform="matrix(0.05,0,0,0.05,87.85000000000001,0)" xlink:href="#aU"/></g><path fill="#fff" d="M212-179c-10-28-35-45-73-45-59 0-87 40-87 99 0 60 29 101 89 101 43 0 62-24 78-52l27 14C228-24 195 4 139 4 59 4 22-46 18-125c-6-104 99-153 187-111 19 9 31 26 39 46" id="aX"/><path fill="#fff" d="M100-194c62-1 85 37 85 99 1 63-27 99-86 99S16-35 15-95c0-66 28-99 85-99zM99-20c44 1 53-31 53-75 0-43-8-75-51-75s-53 32-53 75 10 74 51 75" id="aY"/><path fill="#fff" d="M210-169c-67 3-38 105-44 169h-31v-121c0-29-5-50-35-48C34-165 62-65 56 0H25l-1-190h30c1 10-1 24 2 32 10-44 99-50 107 0 11-21 27-35 58-36 85-2 47 119 55 194h-31v-121c0-29-5-49-35-48" id="aZ"/><path fill="#fff" d="M206 0h-36l-40-164L89 0H53L-1-190h32L70-26l43-164h34l41 164 42-164h31" id="ba"/><path fill="#fff" d="M141-36C126-15 110 5 73 4 37 3 15-17 15-53c-1-64 63-63 125-63 3-35-9-54-41-54-24 1-41 7-42 31l-33-3c5-37 33-52 76-52 45 0 72 20 72 64v82c-1 20 7 32 28 27v20c-31 9-61-2-59-35zM48-53c0 20 12 33 32 33 41-3 63-29 60-74-43 2-92-5-92 41" id="bb"/><path fill="#fff" d="M24 0v-261h32V0H24" id="bc"/><path fill="#fff" d="M106-169C34-169 62-67 57 0H25v-261h32l-1 103c12-21 28-36 61-36 89 0 53 116 60 194h-32v-121c2-32-8-49-39-48" id="bd"/><g id="p"><use transform="matrix(0.05,0,0,0.05,0,0)" xlink:href="#aX"/><use transform="matrix(0.05,0,0,0.05,12.950000000000001,0)" xlink:href="#aY"/><use transform="matrix(0.05,0,0,0.05,22.950000000000003,0)" xlink:href="#aZ"/><use transform="matrix(0.05,0,0,0.05,37.900000000000006,0)" xlink:href="#aZ"/><use transform="matrix(0.05,0,0,0.05,52.85,0)" xlink:href="#aY"/><use transform="matrix(0.05,0,0,0.05,62.85,0)" xlink:href="#aF"/><use transform="matrix(0.05,0,0,0.05,72.85000000000001,0)" xlink:href="#ba"/><use transform="matrix(0.05,0,0,0.05,85.80000000000001,0)" xlink:href="#aE"/><use transform="matrix(0.05,0,0,0.05,95.80000000000001,0)" xlink:href="#bb"/><use transform="matrix(0.05,0,0,0.05,105.80000000000001,0)" xlink:href="#bc"/><use transform="matrix(0.05,0,0,0.05,109.75,0)" xlink:href="#aG"/><use transform="matrix(0.05,0,0,0.05,114.75,0)" xlink:href="#bd"/></g><path fill="#fff" d="M30-248c87 1 191-15 191 75 0 78-77 80-158 76V0H30v-248zm33 125c57 0 124 11 124-50 0-59-68-47-124-48v98" id="be"/><path fill="#fff" d="M114-163C36-179 61-72 57 0H25l-1-190h30c1 12-1 29 2 39 6-27 23-49 58-41v29" id="bf"/><path fill="#fff" d="M135-143c-3-34-86-38-87 0 15 53 115 12 119 90S17 21 10-45l28-5c4 36 97 45 98 0-10-56-113-15-118-90-4-57 82-63 122-42 12 7 21 19 24 35" id="bg"/><g id="q"><use transform="matrix(0.05,0,0,0.05,0,0)" xlink:href="#be"/><use transform="matrix(0.05,0,0,0.05,12,0)" xlink:href="#aE"/><use transform="matrix(0.05,0,0,0.05,22,0)" xlink:href="#bf"/><use transform="matrix(0.05,0,0,0.05,27.950000000000003,0)" xlink:href="#bg"/><use transform="matrix(0.05,0,0,0.05,36.95,0)" xlink:href="#aY"/><use transform="matrix(0.05,0,0,0.05,46.95,0)" xlink:href="#aF"/></g><path fill="#fff" d="M115-194c55 1 70 41 70 98S169 2 115 4C84 4 66-9 55-30l1 105H24l-1-265h31l2 30c10-21 28-34 59-34zm-8 174c40 0 45-34 45-75s-6-73-45-74c-42 0-51 32-51 76 0 43 10 73 51 73" id="bh"/><g id="r"><use transform="matrix(0.05,0,0,0.05,0,0)" xlink:href="#aX"/><use transform="matrix(0.05,0,0,0.05,12.950000000000001,0)" xlink:href="#aY"/><use transform="matrix(0.05,0,0,0.05,22.950000000000003,0)" xlink:href="#bh"/><use transform="matrix(0.05,0,0,0.05,32.95,0)" xlink:href="#aZ"/><use transform="matrix(0.05,0,0,0.05,47.900000000000006,0)" xlink:href="#aZ"/><use transform="matrix(0.05,0,0,0.05,62.85,0)" xlink:href="#aY"/><use transform="matrix(0.05,0,0,0.05,72.85000000000001,0)" xlink:href="#aF"/><use transform="matrix(0.05,0,0,0.05,82.85000000000001,0)" xlink:href="#ba"/><use transform="matrix(0.05,0,0,0.05,95.80000000000001,0)" xlink:href="#aE"/><use transform="matrix(0.05,0,0,0.05,105.80000000000001,0)" xlink:href="#bb"/><use transform="matrix(0.05,0,0,0.05,115.80000000000001,0)" xlink:href="#bc"/><use transform="matrix(0.05,0,0,0.05,119.75,0)" xlink:href="#aG"/><use transform="matrix(0.05,0,0,0.05,124.75,0)" xlink:href="#bd"/></g><path fill="#fff" d="M96-169c-40 0-48 33-48 73s9 75 48 75c24 0 41-14 43-38l32 2c-6 37-31 61-74 61-59 0-76-41-82-99-10-93 101-131 147-64 4 7 5 14 7 22l-32 3c-4-21-16-35-41-35" id="bi"/><path fill="#fff" d="M179-190L93 31C79 59 56 82 12 73V49c39 6 53-20 64-50L1-190h34L92-34l54-156h33" id="bj"/><g id="s"><use transform="matrix(0.05,0,0,0.05,0,0)" xlink:href="#aC"/><use transform="matrix(0.05,0,0,0.05,12,0)" xlink:href="#aD"/><use transform="matrix(0.05,0,0,0.05,22,0)" xlink:href="#aE"/><use transform="matrix(0.05,0,0,0.05,32,0)" xlink:href="#aF"/><use transform="matrix(0.05,0,0,0.05,42,0)" xlink:href="#bi"/><use transform="matrix(0.05,0,0,0.05,51,0)" xlink:href="#bj"/></g><path fill="#fff" d="M140-251c81 0 123 46 123 126C263-46 219 4 140 4 59 4 17-45 17-125s42-126 123-126zm0 227c63 0 89-41 89-101s-29-99-89-99c-61 0-89 39-89 99S79-25 140-24" id="bk"/><path fill="#fff" d="M24-231v-30h32v30H24zM24 0v-190h32V0H24" id="bl"/><g id="t"><use transform="matrix(0.05,0,0,0.05,0,0)" xlink:href="#bk"/><use transform="matrix(0.05,0,0,0.05,14,0)" xlink:href="#bf"/><use transform="matrix(0.05,0,0,0.05,19.95,0)" xlink:href="#aD"/><use transform="matrix(0.05,0,0,0.05,29.950000000000003,0)" xlink:href="#bb"/><use transform="matrix(0.05,0,0,0.05,39.95,0)" xlink:href="#aF"/><use transform="matrix(0.05,0,0,0.05,49.95,0)" xlink:href="#bl"/><use transform="matrix(0.05,0,0,0.05,53.900000000000006,0)" xlink:href="#bg"/><use transform="matrix(0.05,0,0,0.05,62.900000000000006,0)" xlink:href="#bb"/><use transform="matrix(0.05,0,0,0.05,72.9,0)" xlink:href="#aG"/><use transform="matrix(0.05,0,0,0.05,77.9,0)" xlink:href="#bl"/><use transform="matrix(0.05,0,0,0.05,81.85000000000001,0)" xlink:href="#aY"/><use transform="matrix(0.05,0,0,0.05,91.85000000000001,0)" xlink:href="#aF"/></g><path d="M266 0h-40l-56-210L115 0H75L2-248h35L96-30l15-64 43-154h32l59 218 59-218h35" id="bm"/><path d="M30 0v-248h33v221h125V0H30" id="bn"/><g id="u"><use transform="matrix(0.05,0,0,0.05,0,0)" xlink:href="#aH"/><use transform="matrix(0.05,0,0,0.05,14,0)" xlink:href="#bm"/><use transform="matrix(0.05,0,0,0.05,30.950000000000003,0)" xlink:href="#bn"/></g><path d="M212-179c-10-28-35-45-73-45-59 0-87 40-87 99 0 60 29 101 89 101 43 0 62-24 78-52l27 14C228-24 195 4 139 4 59 4 22-46 18-125c-6-104 99-153 187-111 19 9 31 26 39 46" id="bo"/><g id="v"><use transform="matrix(0.05,0,0,0.05,0,0)" xlink:href="#bo"/><use transform="matrix(0.05,0,0,0.05,12.950000000000001,0)" xlink:href="#ax"/><use transform="matrix(0.05,0,0,0.05,16.900000000000002,0)" xlink:href="#aj"/><use transform="matrix(0.05,0,0,0.05,26.900000000000002,0)" xlink:href="#aA"/><use transform="matrix(0.05,0,0,0.05,35.900000000000006,0)" xlink:href="#aA"/></g><path fill="#fff" d="M33 0v-248h34V0H33" id="bp"/><g id="w"><use transform="matrix(0.05,0,0,0.05,0,0)" xlink:href="#bp"/><use transform="matrix(0.05,0,0,0.05,5,0)" xlink:href="#aG"/><use transform="matrix(0.05,0,0,0.05,10,0)" xlink:href="#aE"/><use transform="matrix(0.05,0,0,0.05,20,0)" xlink:href="#aZ"/></g><path fill="#fff" d="M185-189c-5-48-123-54-124 2 14 75 158 14 163 119 3 78-121 87-175 55-17-10-28-26-33-46l33-7c5 56 141 63 141-1 0-78-155-14-162-118-5-82 145-84 179-34 5 7 8 16 11 25" id="bq"/><g id="x"><use transform="matrix(0.05,0,0,0.05,0,0)" xlink:href="#bq"/><use transform="matrix(0.05,0,0,0.05,12,0)" xlink:href="#aE"/><use transform="matrix(0.05,0,0,0.05,22,0)" xlink:href="#bf"/><use transform="matrix(0.05,0,0,0.05,27.950000000000003,0)" xlink:href="#bl"/><use transform="matrix(0.05,0,0,0.05,31.899999999999995,0)" xlink:href="#aE"/><use transform="matrix(0.05,0,0,0.05,41.9,0)" xlink:href="#bg"/></g><path d="M96-169c-40 0-48 33-48 73s9 75 48 75c24 0 41-14 43-38l32 2c-6 37-31 61-74 61-59 0-76-41-82-99-10-93 101-131 147-64 4 7 5 14 7 22l-32 3c-4-21-16-35-41-35" id="br"/><g id="y"><use transform="matrix(0.05,0,0,0.05,0,0)" xlink:href="#aB"/><use transform="matrix(0.05,0,0,0.05,10,0)" xlink:href="#br"/><use transform="matrix(0.05,0,0,0.05,19,0)" xlink:href="#ak"/><use transform="matrix(0.05,0,0,0.05,24,0)" xlink:href="#as"/></g><g id="z"><use transform="matrix(0.05,0,0,0.05,0,0)" xlink:href="#bo"/><use transform="matrix(0.05,0,0,0.05,12.950000000000001,0)" xlink:href="#aq"/><use transform="matrix(0.05,0,0,0.05,22.950000000000003,0)" xlink:href="#ax"/><use transform="matrix(0.05,0,0,0.05,26.900000000000002,0)" xlink:href="#ax"/><use transform="matrix(0.05,0,0,0.05,30.85,0)" xlink:href="#an"/><use transform="matrix(0.05,0,0,0.05,40.85,0)" xlink:href="#br"/><use transform="matrix(0.05,0,0,0.05,49.85,0)" xlink:href="#ak"/><use transform="matrix(0.05,0,0,0.05,54.85,0)" xlink:href="#aI"/><use transform="matrix(0.05,0,0,0.05,58.800000000000004,0)" xlink:href="#aq"/><use transform="matrix(0.05,0,0,0.05,68.80000000000001,0)" xlink:href="#av"/></g><path d="M143 4C61 4 22-44 18-125c-5-107 100-154 193-111 17 8 29 25 37 43l-32 9c-13-25-37-40-76-40-61 0-88 39-88 99 0 61 29 100 91 101 35 0 62-11 79-27v-45h-74v-28h105v86C228-13 192 4 143 4" id="bs"/><path d="M233-177c-1 41-23 64-60 70L243 0h-38l-65-103H63V0H30v-248c88 3 205-21 203 71zM63-129c60-2 137 13 137-47 0-61-80-42-137-45v92" id="bt"/><path d="M33 0v-248h34V0H33" id="bu"/><path d="M63-220v92h138v28H63V0H30v-248h175v28H63" id="bv"/><g id="A"><use transform="matrix(0.05,0,0,0.05,0,0)" xlink:href="#at"/><use transform="matrix(0.05,0,0,0.05,12,0)" xlink:href="#bs"/><use transform="matrix(0.05,0,0,0.05,26,0)" xlink:href="#bt"/><use transform="matrix(0.05,0,0,0.05,38.95,0)" xlink:href="#bu"/><use transform="matrix(0.05,0,0,0.05,43.95,0)" xlink:href="#bv"/></g><path d="M101-234c-31-9-42 10-38 44h38v23H63V0H32v-167H5v-23h27c-7-52 17-82 69-68v24" id="bw"/><g id="B"><use transform="matrix(0.05,0,0,0.05,0,0)" xlink:href="#aj"/><use transform="matrix(0.05,0,0,0.05,10,0)" xlink:href="#au"/><use transform="matrix(0.05,0,0,0.05,20,0)" xlink:href="#ap"/><use transform="matrix(0.05,0,0,0.05,25.950000000000003,0)" xlink:href="#aI"/><use transform="matrix(0.05,0,0,0.05,29.899999999999995,0)" xlink:href="#bw"/><use transform="matrix(0.05,0,0,0.05,34.9,0)" xlink:href="#as"/></g><g id="C"><use transform="matrix(0.05,0,0,0.05,0,0)" xlink:href="#bt"/><use transform="matrix(0.05,0,0,0.05,12.950000000000001,0)" xlink:href="#an"/><use transform="matrix(0.05,0,0,0.05,22.950000000000003,0)" xlink:href="#br"/><use transform="matrix(0.05,0,0,0.05,31.950000000000003,0)" xlink:href="#aq"/><use transform="matrix(0.05,0,0,0.05,41.95,0)" xlink:href="#ap"/><use transform="matrix(0.05,0,0,0.05,47.900000000000006,0)" xlink:href="#aB"/></g><path fill="#fff" d="M63-220v92h138v28H63V0H30v-248h175v28H63" id="bx"/><path fill="#fff" d="M84 4C-5 8 30-112 23-190h32v120c0 31 7 50 39 49 72-2 45-101 50-169h31l1 190h-30c-1-10 1-25-2-33-11 22-28 36-60 37" id="by"/><g id="D"><use transform="matrix(0.05,0,0,0.05,0,0)" xlink:href="#bx"/><use transform="matrix(0.05,0,0,0.05,10.950000000000001,0)" xlink:href="#by"/><use transform="matrix(0.05,0,0,0.05,20.950000000000003,0)" xlink:href="#aF"/><use transform="matrix(0.05,0,0,0.05,30.950000000000003,0)" xlink:href="#bi"/><use transform="matrix(0.05,0,0,0.05,39.95,0)" xlink:href="#aG"/><use transform="matrix(0.05,0,0,0.05,44.95,0)" xlink:href="#bl"/><use transform="matrix(0.05,0,0,0.05,48.900000000000006,0)" xlink:href="#aY"/><use transform="matrix(0.05,0,0,0.05,58.900000000000006,0)" xlink:href="#aF"/></g><g id="E"><use transform="matrix(0.05,0,0,0.05,0,0)" xlink:href="#aI"/><use transform="matrix(0.05,0,0,0.05,3.95,0)" xlink:href="#aA"/></g><path d="M84 4C-5 8 30-112 23-190h32v120c0 31 7 50 39 49 72-2 45-101 50-169h31l1 190h-30c-1-10 1-25-2-33-11 22-28 36-60 37" id="bz"/><g id="F"><use transform="matrix(0.05,0,0,0.05,0,0)" xlink:href="#bw"/><use transform="matrix(0.05,0,0,0.05,5,0)" xlink:href="#bz"/><use transform="matrix(0.05,0,0,0.05,15,0)" xlink:href="#av"/><use transform="matrix(0.05,0,0,0.05,25,0)" xlink:href="#br"/><use transform="matrix(0.05,0,0,0.05,34,0)" xlink:href="#ak"/><use transform="matrix(0.05,0,0,0.05,39,0)" xlink:href="#aI"/><use transform="matrix(0.05,0,0,0.05,42.95,0)" xlink:href="#aq"/><use transform="matrix(0.05,0,0,0.05,52.95,0)" xlink:href="#av"/></g><g id="G"><use transform="matrix(0.05,0,0,0.05,0,0)" xlink:href="#aq"/><use transform="matrix(0.05,0,0,0.05,10,0)" xlink:href="#bw"/></g><path d="M55-144c13 50 104 24 104 88C159 21 15 23 1-39l26-10c6 40 102 42 102-4-13-50-104-23-104-87 0-71 143-71 148-8l-29 4c-5-35-85-37-89 0" id="bA"/><g id="H"><use transform="matrix(0.05,0,0,0.05,0,0)" xlink:href="#aV"/><use transform="matrix(0.05,0,0,0.05,3.95,0)" xlink:href="#bA"/></g><path d="M67-162c32-53 139-36 121 50C175-51 163 2 97 4 68 4 52-11 42-31 38 6 28 39 22 75H-9l50-265h29c-1 10 0 20-3 28zm89 36c0-26-10-43-35-43-54 0-67 50-69 103-1 29 14 45 42 46 53 0 62-58 62-106" id="bB"/><path d="M76-167L44 0H12l33-167H18l4-23h27c3-47 25-81 82-69l-4 24c-35-8-44 15-46 45h37l-5 23H76" id="bC"/><path d="M248-111c6-24 9-61-24-58-72 9-57 108-77 169h-31l26-142c3-37-50-30-64-10C52-115 50-51 37 0H6l36-190h30c-1 10-6 24-4 32 13-43 101-52 105 5 13-22 29-41 61-41 90 0 28 129 23 194h-31" id="bD"/><g id="I"><use transform="matrix(0.05,0,0,0.05,0,0)" xlink:href="#bB"/><use transform="matrix(0.05,0,0,0.05,10,0)" xlink:href="#aN"/><use transform="matrix(0.05,0,0,0.05,20,0)" xlink:href="#aM"/><use transform="matrix(0.05,0,0,0.05,25.950000000000003,0)" xlink:href="#bC"/><use transform="matrix(0.05,0,0,0.05,30.950000000000003,0)" xlink:href="#aS"/><use transform="matrix(0.05,0,0,0.05,40.95,0)" xlink:href="#aM"/><use transform="matrix(0.05,0,0,0.05,46.900000000000006,0)" xlink:href="#bD"/><use transform="matrix(0.05,0,0,0.05,61.85,0)" xlink:href="#aN"/><use transform="matrix(0.05,0,0,0.05,71.85000000000001,0)" xlink:href="#aR"/></g><path d="M68-162c25-46 127-43 121 31C183-60 169 1 98 4 69 5 53-11 43-31L36 0H5l52-261h31zm88 36c2-27-9-43-34-43-55 0-70 51-70 103 0 29 15 45 43 46 52 0 58-58 61-106" id="bE"/><path d="M198-190L69 30C53 58 25 83-20 72c4-11-1-27 19-22 33-1 43-29 59-52L20-190h32L79-34l84-156h35" id="bF"/><g id="J"><use transform="matrix(0.05,0,0,0.05,0,0)" xlink:href="#bE"/><use transform="matrix(0.05,0,0,0.05,10,0)" xlink:href="#bF"/></g><path d="M115-194c53 0 69 39 70 98 0 66-23 100-70 100C84 3 66-7 56-30L54 0H23l1-261h32v101c10-23 28-34 59-34zm-8 174c40 0 45-34 45-75 0-40-5-75-45-74-42 0-51 32-51 76 0 43 10 73 51 73" id="bG"/><g id="K"><use transform="matrix(0.05,0,0,0.05,0,0)" xlink:href="#aq"/><use transform="matrix(0.05,0,0,0.05,10,0)" xlink:href="#ap"/><use transform="matrix(0.05,0,0,0.05,15.949999999999998,0)" xlink:href="#au"/><use transform="matrix(0.05,0,0,0.05,25.950000000000003,0)" xlink:href="#as"/><use transform="matrix(0.05,0,0,0.05,30.950000000000003,0)" xlink:href="#aA"/><use transform="matrix(0.05,0,0,0.05,39.95,0)" xlink:href="#bz"/><use transform="matrix(0.05,0,0,0.05,49.95,0)" xlink:href="#bG"/></g><g id="L"><use transform="matrix(0.05,0,0,0.05,0,0)" xlink:href="#aH"/><use transform="matrix(0.05,0,0,0.05,14,0)" xlink:href="#ap"/><use transform="matrix(0.05,0,0,0.05,19.95,0)" xlink:href="#au"/><use transform="matrix(0.05,0,0,0.05,29.950000000000003,0)" xlink:href="#aj"/><use transform="matrix(0.05,0,0,0.05,39.95,0)" xlink:href="#av"/><use transform="matrix(0.05,0,0,0.05,49.95,0)" xlink:href="#aI"/><use transform="matrix(0.05,0,0,0.05,53.900000000000006,0)" xlink:href="#aJ"/><use transform="matrix(0.05,0,0,0.05,62.900000000000006,0)" xlink:href="#aj"/><use transform="matrix(0.05,0,0,0.05,72.9,0)" xlink:href="#ak"/><use transform="matrix(0.05,0,0,0.05,77.9,0)" xlink:href="#aI"/><use transform="matrix(0.05,0,0,0.05,81.85000000000001,0)" xlink:href="#aq"/><use transform="matrix(0.05,0,0,0.05,91.85000000000001,0)" xlink:href="#av"/><use transform="matrix(0.05,0,0,0.05,101.85000000000001,0)" xlink:href="#aH"/><use transform="matrix(0.05,0,0,0.05,115.85000000000001,0)" xlink:href="#bw"/></g><g id="M"><use transform="matrix(0.05,0,0,0.05,0,0)" xlink:href="#aP"/><use transform="matrix(0.05,0,0,0.05,10,0)" xlink:href="#aM"/><use transform="matrix(0.05,0,0,0.05,15.949999999999998,0)" xlink:href="#aN"/></g><g id="N"><use transform="matrix(0.05,0,0,0.05,0,0)" xlink:href="#bB"/><use transform="matrix(0.05,0,0,0.05,10,0)" xlink:href="#aP"/><use transform="matrix(0.05,0,0,0.05,20,0)" xlink:href="#aM"/><use transform="matrix(0.05,0,0,0.05,25.950000000000003,0)" xlink:href="#aQ"/></g><g id="O"><use transform="matrix(0.05,0,0,0.05,0,0)" xlink:href="#aS"/><use transform="matrix(0.05,0,0,0.05,10,0)" xlink:href="#bC"/></g><g id="P"><use transform="matrix(0.05,0,0,0.05,0,0)" xlink:href="#aB"/><use transform="matrix(0.05,0,0,0.05,10,0)" xlink:href="#br"/><use transform="matrix(0.05,0,0,0.05,19,0)" xlink:href="#ak"/><use transform="matrix(0.05,0,0,0.05,24,0)" xlink:href="#as"/><use transform="matrix(0.05,0,0,0.05,29,0)" xlink:href="#br"/><use transform="matrix(0.05,0,0,0.05,38,0)" xlink:href="#ap"/><use transform="matrix(0.05,0,0,0.05,43.95,0)" xlink:href="#an"/><use transform="matrix(0.05,0,0,0.05,53.95,0)" xlink:href="#aj"/><use transform="matrix(0.05,0,0,0.05,63.95,0)" xlink:href="#ak"/><use transform="matrix(0.05,0,0,0.05,68.95,0)" xlink:href="#aq"/><use transform="matrix(0.05,0,0,0.05,78.95,0)" xlink:href="#ap"/></g><path d="M44-68c0 29 11 47 38 47 30 0 42-19 51-41l28 9C148-21 126 4 82 4 31 4 10-29 12-85c3-77 74-140 146-93 12 8 15 23 18 40l-31 5c-1-22-13-36-36-36-52 0-65 49-65 101" id="bH"/><g id="Q"><use transform="matrix(0.05,0,0,0.05,0,0)" xlink:href="#bH"/><use transform="matrix(0.05,0,0,0.05,9,0)" xlink:href="#aM"/><use transform="matrix(0.05,0,0,0.05,14.949999999999998,0)" xlink:href="#aN"/><use transform="matrix(0.05,0,0,0.05,24.95,0)" xlink:href="#aP"/><use transform="matrix(0.05,0,0,0.05,34.95,0)" xlink:href="#aQ"/><use transform="matrix(0.05,0,0,0.05,39.95,0)" xlink:href="#aN"/><use transform="matrix(0.05,0,0,0.05,49.95,0)" xlink:href="#aR"/></g><path d="M106-169C34-169 62-67 57 0H25v-261h32l-1 103c12-21 28-36 61-36 89 0 53 116 60 194h-32v-121c2-32-8-49-39-48" id="bI"/><g id="R"><use transform="matrix(0.05,0,0,0.05,0,0)" xlink:href="#aB"/><use transform="matrix(0.05,0,0,0.05,10,0)" xlink:href="#br"/><use transform="matrix(0.05,0,0,0.05,19,0)" xlink:href="#ak"/><use transform="matrix(0.05,0,0,0.05,24,0)" xlink:href="#as"/><use transform="matrix(0.05,0,0,0.05,29,0)" xlink:href="#bI"/><use transform="matrix(0.05,0,0,0.05,39,0)" xlink:href="#aj"/><use transform="matrix(0.05,0,0,0.05,49,0)" xlink:href="#aA"/><use transform="matrix(0.05,0,0,0.05,58,0)" xlink:href="#ao"/><use transform="matrix(0.05,0,0,0.05,70,0)" xlink:href="#aj"/><use transform="matrix(0.05,0,0,0.05,80,0)" xlink:href="#ap"/><use transform="matrix(0.05,0,0,0.05,85.95,0)" xlink:href="#ak"/></g><g id="S"><use transform="matrix(0.05,0,0,0.05,0,0)" xlink:href="#bH"/><use transform="matrix(0.05,0,0,0.05,9,0)" xlink:href="#aS"/><use transform="matrix(0.05,0,0,0.05,19,0)" xlink:href="#aU"/><use transform="matrix(0.05,0,0,0.05,29,0)" xlink:href="#aQ"/><use transform="matrix(0.05,0,0,0.05,34,0)" xlink:href="#aP"/><use transform="matrix(0.05,0,0,0.05,44,0)" xlink:href="#aV"/><use transform="matrix(0.05,0,0,0.05,47.95,0)" xlink:href="#aU"/><use transform="matrix(0.05,0,0,0.05,57.95,0)" xlink:href="#bA"/></g><path fill="#fff" d="M101-234c-31-9-42 10-38 44h38v23H63V0H32v-167H5v-23h27c-7-52 17-82 69-68v24" id="bJ"/><g id="T"><use transform="matrix(0.05,0,0,0.05,0,0)" xlink:href="#aC"/><use transform="matrix(0.05,0,0,0.05,12,0)" xlink:href="#bJ"/><use transform="matrix(0.05,0,0,0.05,16.65,0)" xlink:href="#bJ"/><use transform="matrix(0.05,0,0,0.05,21.65,0)" xlink:href="#bl"/><use transform="matrix(0.05,0,0,0.05,25.599999999999998,0)" xlink:href="#bc"/><use transform="matrix(0.05,0,0,0.05,29.549999999999997,0)" xlink:href="#bl"/><use transform="matrix(0.05,0,0,0.05,33.5,0)" xlink:href="#bb"/><use transform="matrix(0.05,0,0,0.05,43.5,0)" xlink:href="#aG"/><use transform="matrix(0.05,0,0,0.05,48.5,0)" xlink:href="#bl"/><use transform="matrix(0.05,0,0,0.05,52.45,0)" xlink:href="#aY"/><use transform="matrix(0.05,0,0,0.05,62.45,0)" xlink:href="#aF"/></g><path fill="#fff" d="M233-177c-1 41-23 64-60 70L243 0h-38l-65-103H63V0H30v-248c88 3 205-21 203 71zM63-129c60-2 137 13 137-47 0-61-80-42-137-45v92" id="bK"/><g id="U"><use transform="matrix(0.05,0,0,0.05,0,0)" xlink:href="#bK"/><use transform="matrix(0.05,0,0,0.05,12.950000000000001,0)" xlink:href="#aE"/><use transform="matrix(0.05,0,0,0.05,22.950000000000003,0)" xlink:href="#bc"/><use transform="matrix(0.05,0,0,0.05,26.900000000000002,0)" xlink:href="#bb"/><use transform="matrix(0.05,0,0,0.05,36.900000000000006,0)" xlink:href="#aG"/><use transform="matrix(0.05,0,0,0.05,41.900000000000006,0)" xlink:href="#bl"/><use transform="matrix(0.05,0,0,0.05,45.85000000000001,0)" xlink:href="#aY"/><use transform="matrix(0.05,0,0,0.05,55.85,0)" xlink:href="#aF"/><use transform="matrix(0.05,0,0,0.05,65.85000000000001,0)" xlink:href="#bg"/><use transform="matrix(0.05,0,0,0.05,74.85000000000001,0)" xlink:href="#bd"/><use transform="matrix(0.05,0,0,0.05,84.85000000000001,0)" xlink:href="#bl"/><use transform="matrix(0.05,0,0,0.05,88.80000000000001,0)" xlink:href="#bh"/></g><g id="V"><use transform="matrix(0.05,0,0,0.05,0,0)" xlink:href="#aq"/><use transform="matrix(0.05,0,0,0.05,10,0)" xlink:href="#ap"/><use transform="matrix(0.05,0,0,0.05,15.949999999999998,0)" xlink:href="#au"/><use transform="matrix(0.05,0,0,0.05,25.950000000000003,0)" xlink:href="#as"/></g><path d="M240 0l2-218c-23 76-54 145-80 218h-23L58-218 59 0H30v-248h44l77 211c21-75 51-140 76-211h43V0h-30" id="bL"/><g id="W"><use transform="matrix(0.05,0,0,0.05,0,0)" xlink:href="#bL"/><use transform="matrix(0.05,0,0,0.05,14.950000000000001,0)" xlink:href="#an"/><use transform="matrix(0.05,0,0,0.05,24.950000000000003,0)" xlink:href="#ay"/><use transform="matrix(0.05,0,0,0.05,39.900000000000006,0)" xlink:href="#bG"/><use transform="matrix(0.05,0,0,0.05,49.900000000000006,0)" xlink:href="#an"/><use transform="matrix(0.05,0,0,0.05,59.900000000000006,0)" xlink:href="#ap"/><use transform="matrix(0.05,0,0,0.05,65.85000000000001,0)" xlink:href="#aA"/><use transform="matrix(0.05,0,0,0.05,74.85000000000001,0)" xlink:href="#bI"/><use transform="matrix(0.05,0,0,0.05,84.85000000000001,0)" xlink:href="#aI"/><use transform="matrix(0.05,0,0,0.05,88.80000000000001,0)" xlink:href="#am"/></g><g id="X"><use transform="matrix(0.05,0,0,0.05,0,0)" xlink:href="#aC"/><use transform="matrix(0.05,0,0,0.05,12,0)" xlink:href="#by"/><use transform="matrix(0.05,0,0,0.05,22,0)" xlink:href="#aG"/><use transform="matrix(0.05,0,0,0.05,27,0)" xlink:href="#bd"/><use transform="matrix(0.05,0,0,0.05,37,0)" xlink:href="#aY"/><use transform="matrix(0.05,0,0,0.05,47,0)" xlink:href="#bf"/><use transform="matrix(0.05,0,0,0.05,52.95,0)" xlink:href="#bl"/><use transform="matrix(0.05,0,0,0.05,56.900000000000006,0)" xlink:href="#aG"/><use transform="matrix(0.05,0,0,0.05,61.900000000000006,0)" xlink:href="#bj"/></g><g id="Y"><use transform="matrix(0.05,0,0,0.05,0,0)" xlink:href="#ay"/><use transform="matrix(0.05,0,0,0.05,14.950000000000001,0)" xlink:href="#aj"/><use transform="matrix(0.05,0,0,0.05,24.950000000000003,0)" xlink:href="#av"/><use transform="matrix(0.05,0,0,0.05,34.95,0)" xlink:href="#aB"/><use transform="matrix(0.05,0,0,0.05,44.95,0)" xlink:href="#aj"/><use transform="matrix(0.05,0,0,0.05,54.95,0)" xlink:href="#ak"/><use transform="matrix(0.05,0,0,0.05,59.95,0)" xlink:href="#an"/><use transform="matrix(0.05,0,0,0.05,69.95,0)" xlink:href="#aB"/></g><g id="Z"><use transform="matrix(0.05,0,0,0.05,0,0)" xlink:href="#bG"/><use transform="matrix(0.05,0,0,0.05,10,0)" xlink:href="#al"/></g><g id="aa"><use transform="matrix(0.05,0,0,0.05,0,0)" xlink:href="#aX"/><use transform="matrix(0.05,0,0,0.05,12.950000000000001,0)" xlink:href="#bK"/><use transform="matrix(0.05,0,0,0.05,25.900000000000002,0)" xlink:href="#bq"/></g><g id="ab"><use transform="matrix(0.05,0,0,0.05,0,0)" xlink:href="#aX"/><use transform="matrix(0.05,0,0,0.05,12.950000000000001,0)" xlink:href="#bc"/><use transform="matrix(0.05,0,0,0.05,16.900000000000002,0)" xlink:href="#bb"/><use transform="matrix(0.05,0,0,0.05,26.900000000000002,0)" xlink:href="#bg"/><use transform="matrix(0.05,0,0,0.05,35.900000000000006,0)" xlink:href="#bg"/></g><g id="ac"><use transform="matrix(0.05,0,0,0.05,0,0)" xlink:href="#ap"/><use transform="matrix(0.05,0,0,0.05,5.95,0)" xlink:href="#aB"/><use transform="matrix(0.05,0,0,0.05,15.949999999999998,0)" xlink:href="#bw"/><use transform="matrix(0.05,0,0,0.05,20.95,0)" xlink:href="#aA"/><use transform="matrix(0.05,0,0,0.05,29.950000000000003,0)" xlink:href="#as"/><use transform="matrix(0.05,0,0,0.05,34.95,0)" xlink:href="#aA"/><use transform="matrix(0.05,0,0,0.05,43.95,0)" xlink:href="#bz"/><use transform="matrix(0.05,0,0,0.05,53.95,0)" xlink:href="#bG"/><use transform="matrix(0.05,0,0,0.05,63.95,0)" xlink:href="#bo"/><use transform="matrix(0.05,0,0,0.05,76.9,0)" xlink:href="#ax"/><use transform="matrix(0.05,0,0,0.05,80.85000000000001,0)" xlink:href="#aj"/><use transform="matrix(0.05,0,0,0.05,90.85000000000001,0)" xlink:href="#aA"/><use transform="matrix(0.05,0,0,0.05,99.85000000000001,0)" xlink:href="#aA"/><use transform="matrix(0.05,0,0,0.05,108.85000000000001,0)" xlink:href="#aH"/><use transform="matrix(0.05,0,0,0.05,122.85000000000001,0)" xlink:href="#bw"/></g><g id="ad"><use transform="matrix(0.05,0,0,0.05,0,0)" xlink:href="#ap"/><use transform="matrix(0.05,0,0,0.05,5.95,0)" xlink:href="#aB"/><use transform="matrix(0.05,0,0,0.05,15.949999999999998,0)" xlink:href="#bw"/><use transform="matrix(0.05,0,0,0.05,20.95,0)" xlink:href="#as"/><use transform="matrix(0.05,0,0,0.05,25.950000000000003,0)" xlink:href="#ak"/><use transform="matrix(0.05,0,0,0.05,30.950000000000003,0)" xlink:href="#al"/><use transform="matrix(0.05,0,0,0.05,39.95,0)" xlink:href="#am"/><use transform="matrix(0.05,0,0,0.05,49.95,0)" xlink:href="#an"/></g><path d="M206 0h-36l-40-164L89 0H53L-1-190h32L70-26l43-164h34l41 164 42-164h31" id="bM"/><g id="ae"><use transform="matrix(0.05,0,0,0.05,0,0)" xlink:href="#aq"/><use transform="matrix(0.05,0,0,0.05,10,0)" xlink:href="#bM"/><use transform="matrix(0.05,0,0,0.05,22.950000000000003,0)" xlink:href="#ax"/><use transform="matrix(0.05,0,0,0.05,26.900000000000002,0)" xlink:href="#as"/><use transform="matrix(0.05,0,0,0.05,31.900000000000002,0)" xlink:href="#ao"/><use transform="matrix(0.05,0,0,0.05,43.900000000000006,0)" xlink:href="#ap"/><use transform="matrix(0.05,0,0,0.05,49.85000000000001,0)" xlink:href="#aq"/><use transform="matrix(0.05,0,0,0.05,59.85,0)" xlink:href="#am"/><use transform="matrix(0.05,0,0,0.05,69.85000000000001,0)" xlink:href="#an"/><use transform="matrix(0.05,0,0,0.05,79.85000000000001,0)" xlink:href="#ap"/><use transform="matrix(0.05,0,0,0.05,85.80000000000001,0)" xlink:href="#ak"/><use transform="matrix(0.05,0,0,0.05,90.80000000000001,0)" xlink:href="#al"/></g><g id="af"><use transform="matrix(0.05,0,0,0.05,0,0)" xlink:href="#bI"/><use transform="matrix(0.05,0,0,0.05,10,0)" xlink:href="#aj"/><use transform="matrix(0.05,0,0,0.05,20,0)" xlink:href="#aA"/></g><g id="ag"><use transform="matrix(0.05,0,0,0.05,0,0)" xlink:href="#aj"/><use transform="matrix(0.05,0,0,0.05,10,0)" xlink:href="#au"/><use transform="matrix(0.05,0,0,0.05,20,0)" xlink:href="#an"/><use transform="matrix(0.05,0,0,0.05,30,0)" xlink:href="#av"/><use transform="matrix(0.05,0,0,0.05,40,0)" xlink:href="#ak"/></g><g id="ah"><use transform="matrix(0.05,0,0,0.05,0,0)" xlink:href="#bv"/><use transform="matrix(0.05,0,0,0.05,10.950000000000001,0)" xlink:href="#bz"/><use transform="matrix(0.05,0,0,0.05,20.950000000000003,0)" xlink:href="#av"/><use transform="matrix(0.05,0,0,0.05,30.950000000000003,0)" xlink:href="#br"/><use transform="matrix(0.05,0,0,0.05,39.95,0)" xlink:href="#ak"/><use transform="matrix(0.05,0,0,0.05,44.95,0)" xlink:href="#aI"/><use transform="matrix(0.05,0,0,0.05,48.900000000000006,0)" xlink:href="#aq"/><use transform="matrix(0.05,0,0,0.05,58.900000000000006,0)" xlink:href="#av"/></g></defs></g></svg>