<svg xmlns="http://www.w3.org/2000/svg" xmlns:xlink="http://www.w3.org/1999/xlink" xmlns:lucid="lucid" width="1648.67" height="1020"><g transform="translate(-7.9568913913799975 -7.9568913913799975)" lucid:page-tab-id="0_0"><path d="M0 0h1634.08v1156.02H0z" fill="#fff"/><path d="M27.96 339.48c0-2.77 1.93-6.13 4.32-7.52l71.35-41.5c2.4-1.38 6.26-1.38 8.65 0l71.35 41.5c2.4 1.4 4.33 4.75 4.33 7.52v63.48c0 2.76-2.24 5-5 5h-150c-2.76 0-5-2.24-5-5z" stroke="#000" stroke-width="2" fill="#fff"/><use xlink:href="#a" transform="matrix(1,0,0,1,27.956891391379997,287.95689139138) translate(60.025 52.8)"/><use xlink:href="#b" transform="matrix(1,0,0,1,27.956891391379997,287.95689139138) translate(56.5 74.4)"/><path d="M126.12 47.96h140v40h-140z" stroke="#000" stroke-opacity="0" stroke-width="2" fill="#fff" fill-opacity="0"/><use xlink:href="#c" transform="matrix(1,0,0,1,131.12341043478125,52.95689139138) translate(14.049999999999997 18.6)"/><use xlink:href="#d" transform="matrix(1,0,0,1,131.12341043478125,52.95689139138) translate(84.95 18.6)"/><path d="M936.12 79.48c0-2.77 1.94-6.13 4.33-7.52l71.35-41.5c2.4-1.38 6.26-1.38 8.65 0l71.35 41.5c2.4 1.4 4.32 4.75 4.32 7.52v63.48c0 2.76-2.24 5-5 5h-150c-2.76 0-5-2.24-5-5z" stroke="#000" stroke-width="2" fill="#fff"/><use xlink:href="#a" transform="matrix(1,0,0,1,936.1234104347811,27.956891391379997) translate(60.025 52.8)"/><use xlink:href="#b" transform="matrix(1,0,0,1,936.1234104347811,27.956891391379997) translate(56.5 74.4)"/><path d="M656.12 295.65c0-2.76 1.94-6.12 4.33-7.5l71.35-41.5c2.4-1.4 6.26-1.4 8.65 0l71.35 41.5c2.4 1.38 4.32 4.74 4.32 7.5v63.48c0 2.76-2.24 5-5 5h-150c-2.76 0-5-2.24-5-5z" stroke="#000" stroke-width="2" fill="#fff"/><use xlink:href="#e" transform="matrix(1,0,0,1,656.1234104347812,244.13308791829627) translate(63 52.8)"/><use xlink:href="#f" transform="matrix(1,0,0,1,656.1234104347812,244.13308791829627) translate(51.525 74.4)"/><path d="M936.12 295.14c0-2.76 1.94-6.12 4.33-7.5l71.35-41.5c2.4-1.4 6.26-1.4 8.65 0l71.35 41.5c2.4 1.38 4.32 4.74 4.32 7.5v63.48c0 2.76-2.24 5-5 5h-150c-2.76 0-5-2.24-5-5z" stroke="#000" stroke-width="2" fill="#666"/><use xlink:href="#g" transform="matrix(1,0,0,1,936.1234104347811,243.62355805806118) translate(56.5 63.6)"/><path d="M1273.18 295.65c0-2.76 1.94-6.12 4.33-7.5l71.36-41.5c2.4-1.4 6.26-1.4 8.65 0l71.36 41.5c2.4 1.38 4.32 4.74 4.32 7.5v63.48c0 2.76-2.23 5-5 5h-150c-2.76 0-5-2.24-5-5z" stroke="#000" stroke-width="2" fill="#fff"/><use xlink:href="#h" transform="matrix(1,0,0,1,1273.184370058649,244.13308791829627) translate(64.525 52.8)"/><use xlink:href="#i" transform="matrix(1,0,0,1,1273.184370058649,244.13308791829627) translate(29.074999999999996 74.4)"/><path d="M1353.18 243.63V196.8h-337.06v-29.34" stroke="#000" stroke-width="2" fill="none"/><path d="M1354.18 244.7l-1.38-.1-.62.1v-1.1h2z"/><path d="M1016.12 152.2l4.64 14.26h-9.27z" stroke="#000" stroke-width="2" fill="#fff"/><path d="M1016.12 243.12v-75.66" stroke="#000" stroke-width="2" fill="none"/><path d="M1017.12 244.2l-1.38-.1-.62.08v-1.08h2z"/><path d="M1016.12 152.2l4.64 14.26h-9.27z" stroke="#000" stroke-width="2" fill="#fff"/><path d="M736.12 243.63V196.8h280v-29.34" stroke="#000" stroke-width="2" fill="none"/><path d="M737.12 244.7l-1.38-.1-.62.1v-1.1h2z"/><path d="M1016.12 152.2l4.64 14.26h-9.27z" stroke="#000" stroke-width="2" fill="#fff"/><path d="M1435.18 350.47h39v-46.34H1436" stroke="#000" stroke-width="2" fill="none"/><path d="M1435.2 351.47h-1.02v-2h1.03z"/><path d="M1453.36 293.95l-17.2 10.18 17.2 10.18" stroke="#000" stroke-width="2" fill="none"/><use xlink:href="#j" transform="matrix(1,0,0,1,1482.184370058649,284.099754584946) translate(0 14.4)"/><use xlink:href="#k" transform="matrix(1,0,0,1,1482.184370058649,284.099754584946) translate(0 36)"/><use xlink:href="#l" transform="matrix(1,0,0,1,1482.184370058649,284.099754584946) translate(0 57.6)"/><use xlink:href="#m" transform="matrix(1,0,0,1,1482.184370058649,284.099754584946) translate(0 79.20000000000002)"/><path d="M656.12 499.48c0-2.77 1.94-6.13 4.33-7.52l71.35-41.5c2.4-1.38 6.26-1.38 8.65 0l71.35 41.5c2.4 1.4 4.32 4.75 4.32 7.52v63.48c0 2.76-2.24 5-5 5h-150c-2.76 0-5-2.24-5-5z" stroke="#000" stroke-width="2" fill="#666"/><use xlink:href="#n" transform="matrix(1,0,0,1,656.1234104347812,447.95689139138005) translate(17.624999999999993 52.8)"/><use xlink:href="#o" transform="matrix(1,0,0,1,656.1234104347812,447.95689139138005) translate(51.525 74.4)"/><path d="M936.12 499.48c0-2.77 1.94-6.13 4.33-7.52l71.35-41.5c2.4-1.38 6.26-1.38 8.65 0l71.35 41.5c2.4 1.4 4.32 4.75 4.32 7.52v63.48c0 2.76-2.24 5-5 5h-150c-2.76 0-5-2.24-5-5z" stroke="#000" stroke-width="2" fill="#666"/><use xlink:href="#p" transform="matrix(1,0,0,1,936.1234104347811,447.95689139138005) translate(12.625 52.8)"/><use xlink:href="#q" transform="matrix(1,0,0,1,936.1234104347811,447.95689139138005) translate(50 74.4)"/><path d="M1273.18 499.48c0-2.77 1.94-6.13 4.33-7.52l71.36-41.5c2.4-1.38 6.26-1.38 8.65 0l71.36 41.5c2.4 1.4 4.32 4.75 4.32 7.52v63.48c0 2.76-2.23 5-5 5h-150c-2.76 0-5-2.24-5-5z" stroke="#000" stroke-width="2" fill="#666"/><use xlink:href="#n" transform="matrix(1,0,0,1,1273.184370058649,447.95689139138005) translate(17.624999999999993 52.8)"/><use xlink:href="#r" transform="matrix(1,0,0,1,1273.184370058649,447.95689139138005) translate(29.074999999999996 74.4)"/><path d="M1353.18 447.46v-63.82" stroke="#000" stroke-width="2" fill="none"/><path d="M1354.18 448.53l-1.38-.1-.62.1v-1.1h2z"/><path d="M1353.18 368.37l4.64 14.26h-9.27z" stroke="#000" stroke-width="2" fill="#fff"/><path d="M1016.12 447.46V406.8h337.06v-23.16" stroke="#000" stroke-width="2" fill="none"/><path d="M1017.12 448.53l-1.38-.1-.62.1v-1.1h2z"/><path d="M1353.18 368.37l4.64 14.26h-9.27z" stroke="#000" stroke-width="2" fill="#fff"/><path d="M736.12 447.46v-63.82" stroke="#000" stroke-width="2" fill="none"/><path d="M737.12 448.53l-1.38-.1-.62.1v-1.1h2z"/><path d="M736.12 368.37l4.64 14.26h-9.27z" stroke="#000" stroke-width="2" fill="#fff"/><path d="M736.12 447.46v-40.92h235.34v-23.4" stroke="#000" stroke-width="2" fill="none"/><path d="M737.12 448.53l-1.38-.1-.62.1v-1.1h2z"/><path d="M971.46 367.86l4.63 14.27h-9.28z" stroke="#000" stroke-width="2" fill="#fff"/><path d="M1016.12 447.46v-64.33" stroke="#000" stroke-width="2" fill="none"/><path d="M1017.12 448.53l-1.38-.1-.62.1v-1.1h2z"/><path d="M1016.12 367.86l4.64 14.27h-9.27z" stroke="#000" stroke-width="2" fill="#fff"/><path d="M116.12 104.96c0-2.76 2.24-5 5-5h150c2.76 0 5 2.24 5 5v110c0 2.76-2.24 5-5 5h-150c-2.76 0-5-2.24-5-5z" stroke="#000" stroke-width="2" fill-opacity="0"/><use xlink:href="#s" transform="matrix(1,0,0,1,124.12341043478125,107.95689139138) translate(26.9 55.6)"/><use xlink:href="#t" transform="matrix(1,0,0,1,124.12341043478125,107.95689139138) translate(72.19999999999999 55.6)"/><path d="M656.12 892.96c0-2.76 2.24-5 5-5h150c2.76 0 5 2.24 5 5v110c0 2.76-2.24 5-5 5h-150c-2.76 0-5-2.24-5-5z" stroke="#000" stroke-width="2" fill="#666"/><use xlink:href="#u" transform="matrix(1,0,0,1,664.1234104347812,895.9568913914188) translate(54.525 55.6)"/><path d="M656.12 672.96c0-2.76 2.24-5 5-5h150c2.76 0 5 2.24 5 5v110c0 2.76-2.24 5-5 5h-150c-2.76 0-5-2.24-5-5z" stroke="#000" stroke-width="2" fill="#666"/><use xlink:href="#v" transform="matrix(1,0,0,1,664.1234104347812,675.95689139138) translate(46.55 55.6)"/><path d="M416.12 672.96c0-2.76 2.24-5 5-5h150c2.76 0 5 2.24 5 5v110c0 2.76-2.24 5-5 5h-150c-2.76 0-5-2.24-5-5z" stroke="#000" stroke-width="2" fill-opacity="0"/><use xlink:href="#w" transform="matrix(1,0,0,1,424.1234104347813,675.95689139138) translate(57.5 44.8)"/><use xlink:href="#x" transform="matrix(1,0,0,1,424.1234104347813,675.95689139138) translate(32.599999999999994 66.4)"/><path d="M654.12 727.96h-58.5" stroke="#000" stroke-width="2" fill="none"/><path d="M655.12 728.96h-1.02v-2h1.02z"/><path d="M580.36 727.96l14.27-4.64v9.27z" stroke="#000" stroke-width="2" fill="#fff"/><path d="M936.12 672.96c0-2.76 2.24-5 5-5h150c2.76 0 5 2.24 5 5v110c0 2.76-2.24 5-5 5h-150c-2.76 0-5-2.24-5-5z" stroke="#000" stroke-width="2" fill="#666"/><use xlink:href="#y" transform="matrix(1,0,0,1,944.1234104347811,675.95689139138) translate(37.55 55.6)"/><path d="M1017.12 665.96h-2v-19.74h2zm0-62.94h-2v-32.24h2z"/><path d="M1017.12 666.96h-2v-1.03h2zM1027.17 587.63l-1.73 1.02-9.32-15.76-9.32 15.75-1.72-1.02 11.04-18.67z"/><use xlink:href="#z" transform="matrix(1,0,0,1,954.2234104347812,603.0235580580467) translate(11.455000000000005 14.4)"/><use xlink:href="#A" transform="matrix(1,0,0,1,954.2234104347812,603.0235580580467) translate(29.405000000000005 14.4)"/><use xlink:href="#B" transform="matrix(1,0,0,1,954.2234104347812,603.0235580580467) translate(97.35500000000002 14.4)"/><use xlink:href="#C" transform="matrix(1,0,0,1,954.2234104347812,603.0235580580467) translate(0.005000000000002558 36)"/><use xlink:href="#D" transform="matrix(1,0,0,1,954.2234104347812,603.0235580580467) translate(17.955000000000002 36)"/><use xlink:href="#E" transform="matrix(1,0,0,1,954.2234104347812,603.0235580580467) translate(104.805 36)"/><path d="M1114.28 508.96h-16.16v-2h16.16zm156.1 0h-35.25v-2h35.24z"/><path d="M1098.15 508.96h-1.03v-2h1.03zM1272.18 507.96L1253.5 519l-1-1.72 15.76-9.32-15.76-9.32 1-1.72z"/><use xlink:href="#F" transform="matrix(1,0,0,1,1114.277104428304,464.7568913913607) translate(30.455000000000005 14.4)"/><use xlink:href="#G" transform="matrix(1,0,0,1,1114.277104428304,464.7568913913607) translate(0.005000000000002558 36)"/><use xlink:href="#k" transform="matrix(1,0,0,1,1114.277104428304,464.7568913913607) translate(60.43000000000001 57.6)"/><use xlink:href="#H" transform="matrix(1,0,0,1,1114.277104428304,464.7568913913607) translate(19.480000000000004 79.20000000000002)"/><use xlink:href="#I" transform="matrix(1,0,0,1,1114.277104428304,464.7568913913607) translate(50.43000000000001 79.20000000000002)"/><use xlink:href="#J" transform="matrix(1,0,0,1,1114.277104428304,464.7568913913607) translate(86.38000000000001 79.20000000000002)"/><path d="M737.12 665.96h-2v-7.74h2zm0-50.94h-2v-44.24h2z"/><path d="M737.12 666.96h-2v-1.03h2zM747.17 587.63l-1.73 1.02-9.32-15.76-9.32 15.75-1.72-1.02 11.04-18.67z"/><path d="M737.12 665.96h-2v-7.74h2zm196.2-157h-56.2v100h-140v6.06h-2v-8.06h140v-100h58.2z"/><path d="M737.12 666.96h-2v-1.03h2zM935.12 507.96L916.45 519l-1-1.72 15.74-9.32-15.76-9.32 1-1.72z"/><use xlink:href="#K" transform="matrix(1,0,0,1,685.1734104347813,615.0235580580467) translate(8.505000000000003 14.4)"/><use xlink:href="#C" transform="matrix(1,0,0,1,685.1734104347813,615.0235580580467) translate(0.005000000000002558 36)"/><use xlink:href="#L" transform="matrix(1,0,0,1,685.1734104347813,615.0235580580467) translate(17.955000000000002 36)"/><use xlink:href="#E" transform="matrix(1,0,0,1,685.1734104347813,615.0235580580467) translate(82.905 36)"/><path d="M737.12 885.14h-2v-34.12h2zm0-77.32h-2v-17.86h2z"/><path d="M737.12 789.98h-2v-1.02h2zM747.17 868.3l-11.05 18.66-11.04-18.67 1.72-1.03 9.32 15.76 9.32-15.76z"/><use xlink:href="#M" transform="matrix(1,0,0,1,690.6484104347812,807.823558058047) translate(0.005000000000002558 14.4)"/><use xlink:href="#N" transform="matrix(1,0,0,1,690.6484104347812,807.823558058047) translate(12.005000000000003 36)"/><path d="M1376.12 892.96c0-2.76 2.24-5 5-5h150c2.76 0 5 2.24 5 5v110c0 2.76-2.24 5-5 5h-150c-2.76 0-5-2.24-5-5z" stroke="#000" stroke-width="2" fill="#666"/><use xlink:href="#O" transform="matrix(1,0,0,1,1384.1234104347811,895.9568913914187) translate(35.775 55.6)"/><path d="M1276.12 672.96c0-2.76 2.24-5 5-5h150c2.76 0 5 2.24 5 5v110c0 2.76-2.24 5-5 5h-150c-2.76 0-5-2.24-5-5z" stroke="#000" stroke-width="2" fill="#666"/><use xlink:href="#P" transform="matrix(1,0,0,1,1284.1234104347811,675.95689139138) translate(22.599999999999994 55.6)"/><path d="M1176.12 892.96c0-2.76 2.24-5 5-5h150c2.76 0 5 2.24 5 5v110c0 2.76-2.24 5-5 5h-150c-2.76 0-5-2.24-5-5z" stroke="#000" stroke-width="2" fill-opacity="0"/><use xlink:href="#Q" transform="matrix(1,0,0,1,1184.1234104347811,895.9568913914187) translate(56.525 44.8)"/><use xlink:href="#R" transform="matrix(1,0,0,1,1184.1234104347811,895.9568913914187) translate(22.599999999999994 66.4)"/><path d="M1456.12 885.96v-48h-100v-30.5" stroke="#000" stroke-width="2" fill="none"/><path d="M1457.12 886.96h-2v-1.03h2z"/><path d="M1356.12 792.2l4.64 14.26h-9.27z" stroke="#000" stroke-width="2" fill="#fff"/><path d="M1256.12 885.96v-48h100v-30.5" stroke="#000" stroke-width="2" fill="none"/><path d="M1257.12 886.96h-2v-1.03h2z"/><path d="M1356.12 792.2l4.64 14.26h-9.27z" stroke="#000" stroke-width="2" fill="#fff"/><path d="M416.12 249.13c0-2.76 2.24-5 5-5h150c2.76 0 5 2.24 5 5v110c0 2.76-2.24 5-5 5h-150c-2.76 0-5-2.24-5-5z" stroke="#000" stroke-width="2" fill="#666"/><use xlink:href="#S" transform="matrix(1,0,0,1,424.1234104347813,252.13308791829627) translate(36.55 55.6)"/><path d="M497.12 566.96h-2v-75.34h2zm0-96.94h-2V366.95h2z"/><path d="M507.17 383.8l-1.73 1.02-9.32-15.76-9.32 15.76-1.72-1.02 11.04-18.67zM497.12 567.96h-2v-1.03h2z"/><use xlink:href="#T" transform="matrix(1,0,0,1,444.1484104347813,470.0177758251668) translate(0 14.4)"/><use xlink:href="#U" transform="matrix(1,0,0,1,444.1484104347813,470.0177758251668) translate(84.95 14.4)"/><path d="M216.12 292.96c0-2.76 2.24-5 5-5h150c2.76 0 5 2.24 5 5v110c0 2.76-2.24 5-5 5h-150c-2.76 0-5-2.24-5-5z" stroke="#000" stroke-width="2" fill="#666"/><use xlink:href="#V" transform="matrix(1,0,0,1,224.12341043478125,295.95689139138) translate(28.099999999999994 55.6)"/><use xlink:href="#W" transform="matrix(1,0,0,1,224.12341043478125,295.95689139138) translate(71 55.6)"/><path d="M296.12 285.96v-32h-100v-31.18" fill="none"/><path d="M296.12 285.96V284m0-7.76v-3.88m0-7.77v-3.9m-1.02-6.74h-3.9m-7.76 0h-3.88m-7.77 0h-3.9m-7.77 0h-3.88m-7.77 0h-3.9m-7.76 0h-3.9m-7.76 0h-3.88m-7.77 0h-3.88m-7.77 0h-3.88m-1.85-5.93v-3.9m0-7.76v-3.88m0-7.78v-1.94" stroke="#000" stroke-width="2" fill="none"/><path d="M297.12 286.96h-2v-1.03h2z"/><path d="M206.3 240.14l-10.18-17.22-10.18 17.22" stroke="#000" stroke-width="2" fill="none"/><path d="M149.37 540.8h-22.9v-2h22.9zm137.6 0h-9.75v-2h9.74z"/><path d="M287.96 540.8h-1.03v-2h1.03z"/><path d="M125.46 544.43l-14.27-4.64 14.26-4.64z" fill="#fff"/><path d="M126.46 545.8l-18.5-6 18.5-6.02zm-12.03-6l10.03 3.25v-6.52z"/><g><use xlink:href="#X" transform="matrix(1,0,0,1,149.36522472471324,528.9903723479789) translate(0.005000000000002558 14.4)"/></g><path d="M286.96 502.4H285v-2h1.96zm-9.85 0h-3.92v-2h3.93zm-11.8 0h-3.94v-2h3.94zm-11.8 0h-3.95v-2h3.94zm-70.88 0h-3.94v-2h3.94zm-11.82 0h-3.93v-2h3.93zm-11.8 0h-3.95v-2H159zm-11.82 0h-3.94v-2h3.94zm-11.8 0h-3.95v-2h3.94zm-11.82 0h-3.94v-2h3.94zm-11.82 0h-1.96v-2h1.96z"/><path d="M287.96 502.4h-1.03v-2h1.03zM127.65 492.07l-15.76 9.32 15.75 9.3-1.02 1.73-18.67-11.04 18.67-11.05z"/><g><use xlink:href="#Y" transform="matrix(1,0,0,1,183.31522472471326,490.59037234797876) translate(0.004999999999999005 14.4)"/></g><path d="M163.4 460.8h-53.62v-2h53.6zm123.56 0H263.2v-2h23.76z"/><path d="M287.96 460.8h-1.03v-2h1.03zM127.65 450.47l-15.76 9.32 15.75 9.3-1.02 1.73-18.67-11.04 18.67-11.05z"/><g><use xlink:href="#Z" transform="matrix(1,0,0,1,163.39022472471325,448.99037234797873) translate(0.005000000000002558 14.4)"/></g><path d="M1496.46 885.14h-2V627.96h-416.44v-2h418.44zm-479.34-219.18h-2v-19.74h2z"/><path d="M1017.12 666.96h-2v-1.03h2zM1506.5 868.3l-11.04 18.66-11.04-18.67 1.72-1.03 9.32 15.76 9.32-15.76z"/><path d="M1056.12 187.96h20v44.33h-20z" stroke="#fff" stroke-width="2" fill="#fff"/><path d="M1607.12 948.96h-69v-2h67v-346h2zm0-369.6h-2v-410.4h-536.44v101.67h-2V166.96h540.44z"/><path d="M1538.15 948.96h-1.03v-2h1.03zM1078.72 253.78l-11.04 18.67-11.04-18.67 1.72-1.02 9.32 15.76 9.32-15.76z"/><g><use xlink:href="#aa" transform="matrix(1,0,0,1,1566.6234104347811,579.3722477726615) translate(0 14.4)"/><use xlink:href="#ab" transform="matrix(1,0,0,1,1566.6234104347811,579.3722477726615) translate(34 14.4)"/></g><path d="M107.96 287.46V254.7h88.16V222.8" fill="none"/><path d="M107.96 287.46v-1.96m0-7.84v-3.92m0-7.84v-3.92m.56-7.27h3.92m7.84 0h3.92m7.84 0h3.9m7.85 0h3.9m7.85 0h3.92m7.84 0h3.93m7.84 0h3.9m7.85 0h3.92m1.38-6.45v-3.92m0-7.84v-3.93m0-7.84v-1.95" stroke="#000" stroke-width="2" fill="none"/><path d="M108.96 288.53l-1.4-.1-.6.1v-1.1h2z"/><path d="M206.3 240.14l-10.18-17.22-10.18 17.22" stroke="#000" stroke-width="2" fill="none"/><defs><path d="M115-194c55 1 70 41 70 98S169 2 115 4C84 4 66-9 55-30l1 105H24l-1-265h31l2 30c10-21 28-34 59-34zm-8 174c40 0 45-34 45-75s-6-73-45-74c-42 0-51 32-51 76 0 43 10 73 51 73" id="ac"/><path d="M114-163C36-179 61-72 57 0H25l-1-190h30c1 12-1 29 2 39 6-27 23-49 58-41v29" id="ad"/><path d="M100-194c62-1 85 37 85 99 1 63-27 99-86 99S16-35 15-95c0-66 28-99 85-99zM99-20c44 1 53-31 53-75 0-43-8-75-51-75s-53 32-53 75 10 74 51 75" id="ae"/><path d="M108 0H70L1-190h34L89-25l56-165h34" id="af"/><path d="M33-154v-36h34v36H33zM33 0v-36h34V0H33" id="ag"/><g id="a"><use transform="matrix(0.05,0,0,0.05,0,0)" xlink:href="#ac"/><use transform="matrix(0.05,0,0,0.05,10,0)" xlink:href="#ad"/><use transform="matrix(0.05,0,0,0.05,15.949999999999998,0)" xlink:href="#ae"/><use transform="matrix(0.05,0,0,0.05,25.950000000000003,0)" xlink:href="#af"/><use transform="matrix(0.05,0,0,0.05,34.95,0)" xlink:href="#ag"/></g><path d="M205 0l-28-72H64L36 0H1l101-248h38L239 0h-34zm-38-99l-47-123c-12 45-31 82-46 123h93" id="ah"/><path d="M177-190C167-65 218 103 67 71c-23-6-38-20-44-43l32-5c15 47 100 32 89-28v-30C133-14 115 1 83 1 29 1 15-40 15-95c0-56 16-97 71-98 29-1 48 16 59 35 1-10 0-23 2-32h30zM94-22c36 0 50-32 50-73 0-42-14-75-50-75-39 0-46 34-46 75s6 73 46 73" id="ai"/><path d="M100-194c63 0 86 42 84 106H49c0 40 14 67 53 68 26 1 43-12 49-29l28 8c-11 28-37 45-77 45C44 4 14-33 15-96c1-61 26-98 85-98zm52 81c6-60-76-77-97-28-3 7-6 17-6 28h103" id="aj"/><path d="M117-194c89-4 53 116 60 194h-32v-121c0-31-8-49-39-48C34-167 62-67 57 0H25l-1-190h30c1 10-1 24 2 32 11-22 29-35 61-36" id="ak"/><path d="M59-47c-2 24 18 29 38 22v24C64 9 27 4 27-40v-127H5v-23h24l9-43h21v43h35v23H59v120" id="al"/><g id="b"><use transform="matrix(0.05,0,0,0.05,0,0)" xlink:href="#ah"/><use transform="matrix(0.05,0,0,0.05,12,0)" xlink:href="#ai"/><use transform="matrix(0.05,0,0,0.05,22,0)" xlink:href="#aj"/><use transform="matrix(0.05,0,0,0.05,32,0)" xlink:href="#ak"/><use transform="matrix(0.05,0,0,0.05,42,0)" xlink:href="#al"/></g><path d="M30 0v-248h187v28H63v79h144v27H63v87h162V0H30" id="am"/><path d="M24 0v-261h32V0H24" id="an"/><path d="M210-169c-67 3-38 105-44 169h-31v-121c0-29-5-50-35-48C34-165 62-65 56 0H25l-1-190h30c1 10-1 24 2 32 10-44 99-50 107 0 11-21 27-35 58-36 85-2 47 119 55 194h-31v-121c0-29-5-49-35-48" id="ao"/><g id="c"><use transform="matrix(0.05,0,0,0.05,0,0)" xlink:href="#am"/><use transform="matrix(0.05,0,0,0.05,12,0)" xlink:href="#an"/><use transform="matrix(0.05,0,0,0.05,15.949999999999998,0)" xlink:href="#aj"/><use transform="matrix(0.05,0,0,0.05,25.950000000000003,0)" xlink:href="#ao"/><use transform="matrix(0.05,0,0,0.05,40.9,0)" xlink:href="#aj"/><use transform="matrix(0.05,0,0,0.05,50.9,0)" xlink:href="#ak"/><use transform="matrix(0.05,0,0,0.05,60.900000000000006,0)" xlink:href="#al"/><path d="M-.9 1.25h72.7v1.32H-.9z"/></g><path d="M194 0L95-120 63-95V0H30v-248h33v124l119-124h40L117-140 236 0h-42" id="ap"/><path d="M179-190L93 31C79 59 56 82 12 73V49c39 6 53-20 64-50L1-190h34L92-34l54-156h33" id="aq"/><g id="d"><use transform="matrix(0.05,0,0,0.05,0,0)" xlink:href="#ap"/><use transform="matrix(0.05,0,0,0.05,12,0)" xlink:href="#aj"/><use transform="matrix(0.05,0,0,0.05,22,0)" xlink:href="#aq"/><path d="M-.9 1.25h32.8v1.32H-.9z"/></g><path d="M135-143c-3-34-86-38-87 0 15 53 115 12 119 90S17 21 10-45l28-5c4 36 97 45 98 0-10-56-113-15-118-90-4-57 82-63 122-42 12 7 21 19 24 35" id="ar"/><path d="M85-194c31 0 48 13 60 33l-1-100h32l1 261h-30c-2-10 0-23-3-31C134-8 116 4 85 4 32 4 16-35 15-94c0-66 23-100 70-100zm9 24c-40 0-46 34-46 75 0 40 6 74 45 74 42 0 51-32 51-76 0-42-9-74-50-73" id="as"/><g id="e"><use transform="matrix(0.05,0,0,0.05,0,0)" xlink:href="#ar"/><use transform="matrix(0.05,0,0,0.05,9,0)" xlink:href="#as"/><use transform="matrix(0.05,0,0,0.05,19,0)" xlink:href="#ae"/><use transform="matrix(0.05,0,0,0.05,29,0)" xlink:href="#ag"/></g><path d="M30-248c87 1 191-15 191 75 0 78-77 80-158 76V0H30v-248zm33 125c57 0 124 11 124-50 0-59-68-47-124-48v98" id="at"/><g id="f"><use transform="matrix(0.05,0,0,0.05,0,0)" xlink:href="#at"/><use transform="matrix(0.05,0,0,0.05,12,0)" xlink:href="#aj"/><use transform="matrix(0.05,0,0,0.05,22,0)" xlink:href="#ad"/><use transform="matrix(0.05,0,0,0.05,27.950000000000003,0)" xlink:href="#ar"/><use transform="matrix(0.05,0,0,0.05,36.95,0)" xlink:href="#ae"/><use transform="matrix(0.05,0,0,0.05,46.95,0)" xlink:href="#ak"/></g><path fill="#fff" d="M205 0l-28-72H64L36 0H1l101-248h38L239 0h-34zm-38-99l-47-123c-12 45-31 82-46 123h93" id="au"/><path fill="#fff" d="M177-190C167-65 218 103 67 71c-23-6-38-20-44-43l32-5c15 47 100 32 89-28v-30C133-14 115 1 83 1 29 1 15-40 15-95c0-56 16-97 71-98 29-1 48 16 59 35 1-10 0-23 2-32h30zM94-22c36 0 50-32 50-73 0-42-14-75-50-75-39 0-46 34-46 75s6 73 46 73" id="av"/><path fill="#fff" d="M100-194c63 0 86 42 84 106H49c0 40 14 67 53 68 26 1 43-12 49-29l28 8c-11 28-37 45-77 45C44 4 14-33 15-96c1-61 26-98 85-98zm52 81c6-60-76-77-97-28-3 7-6 17-6 28h103" id="aw"/><path fill="#fff" d="M117-194c89-4 53 116 60 194h-32v-121c0-31-8-49-39-48C34-167 62-67 57 0H25l-1-190h30c1 10-1 24 2 32 11-22 29-35 61-36" id="ax"/><path fill="#fff" d="M59-47c-2 24 18 29 38 22v24C64 9 27 4 27-40v-127H5v-23h24l9-43h21v43h35v23H59v120" id="ay"/><g id="g"><use transform="matrix(0.05,0,0,0.05,0,0)" xlink:href="#au"/><use transform="matrix(0.05,0,0,0.05,12,0)" xlink:href="#av"/><use transform="matrix(0.05,0,0,0.05,22,0)" xlink:href="#aw"/><use transform="matrix(0.05,0,0,0.05,32,0)" xlink:href="#ax"/><use transform="matrix(0.05,0,0,0.05,42,0)" xlink:href="#ay"/></g><g id="h"><use transform="matrix(0.05,0,0,0.05,0,0)" xlink:href="#ae"/><use transform="matrix(0.05,0,0,0.05,10,0)" xlink:href="#ad"/><use transform="matrix(0.05,0,0,0.05,15.949999999999998,0)" xlink:href="#ai"/><use transform="matrix(0.05,0,0,0.05,25.950000000000003,0)" xlink:href="#ag"/></g><path d="M140-251c81 0 123 46 123 126C263-46 219 4 140 4 59 4 17-45 17-125s42-126 123-126zm0 227c63 0 89-41 89-101s-29-99-89-99c-61 0-89 39-89 99S79-25 140-24" id="az"/><path d="M141-36C126-15 110 5 73 4 37 3 15-17 15-53c-1-64 63-63 125-63 3-35-9-54-41-54-24 1-41 7-42 31l-33-3c5-37 33-52 76-52 45 0 72 20 72 64v82c-1 20 7 32 28 27v20c-31 9-61-2-59-35zM48-53c0 20 12 33 32 33 41-3 63-29 60-74-43 2-92-5-92 41" id="aA"/><path d="M24-231v-30h32v30H24zM24 0v-190h32V0H24" id="aB"/><path d="M9 0v-24l116-142H16v-24h144v24L44-24h123V0H9" id="aC"/><g id="i"><use transform="matrix(0.05,0,0,0.05,0,0)" xlink:href="#az"/><use transform="matrix(0.05,0,0,0.05,14,0)" xlink:href="#ad"/><use transform="matrix(0.05,0,0,0.05,19.95,0)" xlink:href="#ai"/><use transform="matrix(0.05,0,0,0.05,29.950000000000003,0)" xlink:href="#aA"/><use transform="matrix(0.05,0,0,0.05,39.95,0)" xlink:href="#ak"/><use transform="matrix(0.05,0,0,0.05,49.95,0)" xlink:href="#aB"/><use transform="matrix(0.05,0,0,0.05,53.900000000000006,0)" xlink:href="#aC"/><use transform="matrix(0.05,0,0,0.05,62.900000000000006,0)" xlink:href="#aA"/><use transform="matrix(0.05,0,0,0.05,72.9,0)" xlink:href="#al"/><use transform="matrix(0.05,0,0,0.05,77.9,0)" xlink:href="#aB"/><use transform="matrix(0.05,0,0,0.05,81.85000000000001,0)" xlink:href="#ae"/><use transform="matrix(0.05,0,0,0.05,91.85000000000001,0)" xlink:href="#ak"/></g><path d="M143 0L79-87 56-68V0H24v-261h32v163l83-92h37l-77 82L181 0h-38" id="aD"/><path d="M127-220V0H93v-220H8v-28h204v28h-85" id="aE"/><g id="j"><use transform="matrix(0.05,0,0,0.05,0,0)" xlink:href="#ae"/><use transform="matrix(0.05,0,0,0.05,10,0)" xlink:href="#ad"/><use transform="matrix(0.05,0,0,0.05,15.949999999999998,0)" xlink:href="#ai"/><use transform="matrix(0.05,0,0,0.05,25.950000000000003,0)" xlink:href="#ag"/><use transform="matrix(0.05,0,0,0.05,30.950000000000003,0)" xlink:href="#an"/><use transform="matrix(0.05,0,0,0.05,34.9,0)" xlink:href="#aB"/><use transform="matrix(0.05,0,0,0.05,38.85,0)" xlink:href="#ak"/><use transform="matrix(0.05,0,0,0.05,48.85,0)" xlink:href="#aD"/><use transform="matrix(0.05,0,0,0.05,57.85,0)" xlink:href="#aj"/><use transform="matrix(0.05,0,0,0.05,67.85,0)" xlink:href="#as"/><use transform="matrix(0.05,0,0,0.05,77.85,0)" xlink:href="#aE"/><use transform="matrix(0.05,0,0,0.05,86.8,0)" xlink:href="#ae"/></g><path d="M66-151c12-25 30-51 66-40l-6 26C45-176 58-65 38 0H6l36-190h30" id="aF"/><path d="M111-194c62-3 86 47 72 106H45c-7 38 6 69 45 68 27-1 43-14 53-32l24 11C152-15 129 4 87 4 38 3 12-23 12-71c0-70 32-119 99-123zm44 81c14-66-71-72-95-28-4 8-8 17-11 28h106" id="aG"/><path d="M6 0l50-261h32L37 0H6" id="aH"/><path d="M165-48c-4 18 1 34 23 27l-3 20c-29 8-62 0-52-35h-2C116-14 99 4 63 4 30 4 8-16 8-49c0-68 71-67 138-67 10-26 0-56-31-54-26 1-42 9-47 31l-32-5c8-67 160-71 144 15-5 28-9 54-15 81zM42-50c3 52 80 24 89-6 7-12 7-24 11-38-47 1-103-4-100 44" id="aI"/><path d="M51-54c-9 22 5 41 31 30L79-1C43 14 10-4 19-52l22-115H19l5-23h22l19-43h21l-9 43h35l-4 23H73" id="aJ"/><path d="M133-28C103 26-5 8 13-77c13-62 24-115 90-117 29-1 46 15 56 35l19-102h32L160 0h-30zM45-64c-2 27 10 43 35 43 54-1 69-50 69-103 0-29-15-46-42-46-53-1-58 58-62 106" id="aK"/><g id="l"><use transform="matrix(0.05,0,0,0.05,0,0)" xlink:href="#aF"/><use transform="matrix(0.05,0,0,0.05,5.95,0)" xlink:href="#aG"/><use transform="matrix(0.05,0,0,0.05,15.949999999999998,0)" xlink:href="#aH"/><use transform="matrix(0.05,0,0,0.05,19.9,0)" xlink:href="#aI"/><use transform="matrix(0.05,0,0,0.05,29.899999999999995,0)" xlink:href="#aJ"/><use transform="matrix(0.05,0,0,0.05,34.9,0)" xlink:href="#aG"/><use transform="matrix(0.05,0,0,0.05,44.9,0)" xlink:href="#aK"/></g><path d="M30-147c31-64 166-65 159 27C183-49 158 1 86 4 9 8 1-88 30-147zM88-20c53 0 68-48 68-100 0-31-11-51-44-50-52 1-68 46-68 97 0 32 13 53 44 53" id="aL"/><path d="M103-194c29 0 47 14 56 36 2-11 5-23 8-32h30L160-5C157 61 82 97 21 62 9 55 4 45 1 30l28-7c7 42 83 31 92-3 4-16 9-38 13-55-13 20-29 36-62 36-40 0-60-25-60-64 0-71 23-131 91-131zm4 24c-53 0-58 54-61 104-2 27 10 44 36 44 49 0 65-50 67-102 1-29-15-46-42-46" id="aM"/><path d="M67-158c22-48 132-52 116 29L158 0h-32l25-140c3-38-53-32-70-12C52-117 51-52 38 0H6l36-190h30" id="aN"/><path d="M50-231l6-30h32l-6 30H50zM6 0l37-190h31L37 0H6" id="aO"/><path d="M-8 0l5-24 140-142H31l5-24h145l-5 24L36-24h119l-5 24H-8" id="aP"/><g id="m"><use transform="matrix(0.05,0,0,0.05,0,0)" xlink:href="#aL"/><use transform="matrix(0.05,0,0,0.05,10,0)" xlink:href="#aF"/><use transform="matrix(0.05,0,0,0.05,15.949999999999998,0)" xlink:href="#aM"/><use transform="matrix(0.05,0,0,0.05,25.950000000000003,0)" xlink:href="#aI"/><use transform="matrix(0.05,0,0,0.05,35.95,0)" xlink:href="#aN"/><use transform="matrix(0.05,0,0,0.05,45.95,0)" xlink:href="#aO"/><use transform="matrix(0.05,0,0,0.05,49.900000000000006,0)" xlink:href="#aP"/><use transform="matrix(0.05,0,0,0.05,58.900000000000006,0)" xlink:href="#aI"/><use transform="matrix(0.05,0,0,0.05,68.9,0)" xlink:href="#aJ"/><use transform="matrix(0.05,0,0,0.05,73.9,0)" xlink:href="#aO"/><use transform="matrix(0.05,0,0,0.05,77.85000000000001,0)" xlink:href="#aL"/><use transform="matrix(0.05,0,0,0.05,87.85000000000001,0)" xlink:href="#aN"/></g><path fill="#fff" d="M212-179c-10-28-35-45-73-45-59 0-87 40-87 99 0 60 29 101 89 101 43 0 62-24 78-52l27 14C228-24 195 4 139 4 59 4 22-46 18-125c-6-104 99-153 187-111 19 9 31 26 39 46" id="aQ"/><path fill="#fff" d="M100-194c62-1 85 37 85 99 1 63-27 99-86 99S16-35 15-95c0-66 28-99 85-99zM99-20c44 1 53-31 53-75 0-43-8-75-51-75s-53 32-53 75 10 74 51 75" id="aR"/><path fill="#fff" d="M210-169c-67 3-38 105-44 169h-31v-121c0-29-5-50-35-48C34-165 62-65 56 0H25l-1-190h30c1 10-1 24 2 32 10-44 99-50 107 0 11-21 27-35 58-36 85-2 47 119 55 194h-31v-121c0-29-5-49-35-48" id="aS"/><path fill="#fff" d="M206 0h-36l-40-164L89 0H53L-1-190h32L70-26l43-164h34l41 164 42-164h31" id="aT"/><path fill="#fff" d="M141-36C126-15 110 5 73 4 37 3 15-17 15-53c-1-64 63-63 125-63 3-35-9-54-41-54-24 1-41 7-42 31l-33-3c5-37 33-52 76-52 45 0 72 20 72 64v82c-1 20 7 32 28 27v20c-31 9-61-2-59-35zM48-53c0 20 12 33 32 33 41-3 63-29 60-74-43 2-92-5-92 41" id="aU"/><path fill="#fff" d="M24 0v-261h32V0H24" id="aV"/><path fill="#fff" d="M106-169C34-169 62-67 57 0H25v-261h32l-1 103c12-21 28-36 61-36 89 0 53 116 60 194h-32v-121c2-32-8-49-39-48" id="aW"/><g id="n"><use transform="matrix(0.05,0,0,0.05,0,0)" xlink:href="#aQ"/><use transform="matrix(0.05,0,0,0.05,12.950000000000001,0)" xlink:href="#aR"/><use transform="matrix(0.05,0,0,0.05,22.950000000000003,0)" xlink:href="#aS"/><use transform="matrix(0.05,0,0,0.05,37.900000000000006,0)" xlink:href="#aS"/><use transform="matrix(0.05,0,0,0.05,52.85,0)" xlink:href="#aR"/><use transform="matrix(0.05,0,0,0.05,62.85,0)" xlink:href="#ax"/><use transform="matrix(0.05,0,0,0.05,72.85000000000001,0)" xlink:href="#aT"/><use transform="matrix(0.05,0,0,0.05,85.80000000000001,0)" xlink:href="#aw"/><use transform="matrix(0.05,0,0,0.05,95.80000000000001,0)" xlink:href="#aU"/><use transform="matrix(0.05,0,0,0.05,105.80000000000001,0)" xlink:href="#aV"/><use transform="matrix(0.05,0,0,0.05,109.75,0)" xlink:href="#ay"/><use transform="matrix(0.05,0,0,0.05,114.75,0)" xlink:href="#aW"/></g><path fill="#fff" d="M30-248c87 1 191-15 191 75 0 78-77 80-158 76V0H30v-248zm33 125c57 0 124 11 124-50 0-59-68-47-124-48v98" id="aX"/><path fill="#fff" d="M114-163C36-179 61-72 57 0H25l-1-190h30c1 12-1 29 2 39 6-27 23-49 58-41v29" id="aY"/><path fill="#fff" d="M135-143c-3-34-86-38-87 0 15 53 115 12 119 90S17 21 10-45l28-5c4 36 97 45 98 0-10-56-113-15-118-90-4-57 82-63 122-42 12 7 21 19 24 35" id="aZ"/><g id="o"><use transform="matrix(0.05,0,0,0.05,0,0)" xlink:href="#aX"/><use transform="matrix(0.05,0,0,0.05,12,0)" xlink:href="#aw"/><use transform="matrix(0.05,0,0,0.05,22,0)" xlink:href="#aY"/><use transform="matrix(0.05,0,0,0.05,27.950000000000003,0)" xlink:href="#aZ"/><use transform="matrix(0.05,0,0,0.05,36.95,0)" xlink:href="#aR"/><use transform="matrix(0.05,0,0,0.05,46.95,0)" xlink:href="#ax"/></g><path fill="#fff" d="M115-194c55 1 70 41 70 98S169 2 115 4C84 4 66-9 55-30l1 105H24l-1-265h31l2 30c10-21 28-34 59-34zm-8 174c40 0 45-34 45-75s-6-73-45-74c-42 0-51 32-51 76 0 43 10 73 51 73" id="ba"/><g id="p"><use transform="matrix(0.05,0,0,0.05,0,0)" xlink:href="#aQ"/><use transform="matrix(0.05,0,0,0.05,12.950000000000001,0)" xlink:href="#aR"/><use transform="matrix(0.05,0,0,0.05,22.950000000000003,0)" xlink:href="#ba"/><use transform="matrix(0.05,0,0,0.05,32.95,0)" xlink:href="#aS"/><use transform="matrix(0.05,0,0,0.05,47.900000000000006,0)" xlink:href="#aS"/><use transform="matrix(0.05,0,0,0.05,62.85,0)" xlink:href="#aR"/><use transform="matrix(0.05,0,0,0.05,72.85000000000001,0)" xlink:href="#ax"/><use transform="matrix(0.05,0,0,0.05,82.85000000000001,0)" xlink:href="#aT"/><use transform="matrix(0.05,0,0,0.05,95.80000000000001,0)" xlink:href="#aw"/><use transform="matrix(0.05,0,0,0.05,105.80000000000001,0)" xlink:href="#aU"/><use transform="matrix(0.05,0,0,0.05,115.80000000000001,0)" xlink:href="#aV"/><use transform="matrix(0.05,0,0,0.05,119.75,0)" xlink:href="#ay"/><use transform="matrix(0.05,0,0,0.05,124.75,0)" xlink:href="#aW"/></g><path fill="#fff" d="M96-169c-40 0-48 33-48 73s9 75 48 75c24 0 41-14 43-38l32 2c-6 37-31 61-74 61-59 0-76-41-82-99-10-93 101-131 147-64 4 7 5 14 7 22l-32 3c-4-21-16-35-41-35" id="bb"/><path fill="#fff" d="M179-190L93 31C79 59 56 82 12 73V49c39 6 53-20 64-50L1-190h34L92-34l54-156h33" id="bc"/><g id="q"><use transform="matrix(0.05,0,0,0.05,0,0)" xlink:href="#au"/><use transform="matrix(0.05,0,0,0.05,12,0)" xlink:href="#av"/><use transform="matrix(0.05,0,0,0.05,22,0)" xlink:href="#aw"/><use transform="matrix(0.05,0,0,0.05,32,0)" xlink:href="#ax"/><use transform="matrix(0.05,0,0,0.05,42,0)" xlink:href="#bb"/><use transform="matrix(0.05,0,0,0.05,51,0)" xlink:href="#bc"/></g><path fill="#fff" d="M140-251c81 0 123 46 123 126C263-46 219 4 140 4 59 4 17-45 17-125s42-126 123-126zm0 227c63 0 89-41 89-101s-29-99-89-99c-61 0-89 39-89 99S79-25 140-24" id="bd"/><path fill="#fff" d="M24-231v-30h32v30H24zM24 0v-190h32V0H24" id="be"/><g id="r"><use transform="matrix(0.05,0,0,0.05,0,0)" xlink:href="#bd"/><use transform="matrix(0.05,0,0,0.05,14,0)" xlink:href="#aY"/><use transform="matrix(0.05,0,0,0.05,19.95,0)" xlink:href="#av"/><use transform="matrix(0.05,0,0,0.05,29.950000000000003,0)" xlink:href="#aU"/><use transform="matrix(0.05,0,0,0.05,39.95,0)" xlink:href="#ax"/><use transform="matrix(0.05,0,0,0.05,49.95,0)" xlink:href="#be"/><use transform="matrix(0.05,0,0,0.05,53.900000000000006,0)" xlink:href="#aZ"/><use transform="matrix(0.05,0,0,0.05,62.900000000000006,0)" xlink:href="#aU"/><use transform="matrix(0.05,0,0,0.05,72.9,0)" xlink:href="#ay"/><use transform="matrix(0.05,0,0,0.05,77.9,0)" xlink:href="#be"/><use transform="matrix(0.05,0,0,0.05,81.85000000000001,0)" xlink:href="#aR"/><use transform="matrix(0.05,0,0,0.05,91.85000000000001,0)" xlink:href="#ax"/></g><path d="M266 0h-40l-56-210L115 0H75L2-248h35L96-30l15-64 43-154h32l59 218 59-218h35" id="bf"/><path d="M30 0v-248h33v221h125V0H30" id="bg"/><g id="s"><use transform="matrix(0.05,0,0,0.05,0,0)" xlink:href="#az"/><use transform="matrix(0.05,0,0,0.05,14,0)" xlink:href="#bf"/><use transform="matrix(0.05,0,0,0.05,30.950000000000003,0)" xlink:href="#bg"/></g><path d="M212-179c-10-28-35-45-73-45-59 0-87 40-87 99 0 60 29 101 89 101 43 0 62-24 78-52l27 14C228-24 195 4 139 4 59 4 22-46 18-125c-6-104 99-153 187-111 19 9 31 26 39 46" id="bh"/><g id="t"><use transform="matrix(0.05,0,0,0.05,0,0)" xlink:href="#bh"/><use transform="matrix(0.05,0,0,0.05,12.950000000000001,0)" xlink:href="#an"/><use transform="matrix(0.05,0,0,0.05,16.900000000000002,0)" xlink:href="#aA"/><use transform="matrix(0.05,0,0,0.05,26.900000000000002,0)" xlink:href="#ar"/><use transform="matrix(0.05,0,0,0.05,35.900000000000006,0)" xlink:href="#ar"/></g><path fill="#fff" d="M33 0v-248h34V0H33" id="bi"/><g id="u"><use transform="matrix(0.05,0,0,0.05,0,0)" xlink:href="#bi"/><use transform="matrix(0.05,0,0,0.05,5,0)" xlink:href="#ay"/><use transform="matrix(0.05,0,0,0.05,10,0)" xlink:href="#aw"/><use transform="matrix(0.05,0,0,0.05,20,0)" xlink:href="#aS"/></g><path fill="#fff" d="M185-189c-5-48-123-54-124 2 14 75 158 14 163 119 3 78-121 87-175 55-17-10-28-26-33-46l33-7c5 56 141 63 141-1 0-78-155-14-162-118-5-82 145-84 179-34 5 7 8 16 11 25" id="bj"/><g id="v"><use transform="matrix(0.05,0,0,0.05,0,0)" xlink:href="#bj"/><use transform="matrix(0.05,0,0,0.05,12,0)" xlink:href="#aw"/><use transform="matrix(0.05,0,0,0.05,22,0)" xlink:href="#aY"/><use transform="matrix(0.05,0,0,0.05,27.950000000000003,0)" xlink:href="#be"/><use transform="matrix(0.05,0,0,0.05,31.899999999999995,0)" xlink:href="#aw"/><use transform="matrix(0.05,0,0,0.05,41.9,0)" xlink:href="#aZ"/></g><path d="M96-169c-40 0-48 33-48 73s9 75 48 75c24 0 41-14 43-38l32 2c-6 37-31 61-74 61-59 0-76-41-82-99-10-93 101-131 147-64 4 7 5 14 7 22l-32 3c-4-21-16-35-41-35" id="bk"/><g id="w"><use transform="matrix(0.05,0,0,0.05,0,0)" xlink:href="#as"/><use transform="matrix(0.05,0,0,0.05,10,0)" xlink:href="#bk"/><use transform="matrix(0.05,0,0,0.05,19,0)" xlink:href="#al"/><use transform="matrix(0.05,0,0,0.05,24,0)" xlink:href="#ag"/></g><g id="x"><use transform="matrix(0.05,0,0,0.05,0,0)" xlink:href="#bh"/><use transform="matrix(0.05,0,0,0.05,12.950000000000001,0)" xlink:href="#ae"/><use transform="matrix(0.05,0,0,0.05,22.950000000000003,0)" xlink:href="#an"/><use transform="matrix(0.05,0,0,0.05,26.900000000000002,0)" xlink:href="#an"/><use transform="matrix(0.05,0,0,0.05,30.85,0)" xlink:href="#aj"/><use transform="matrix(0.05,0,0,0.05,40.85,0)" xlink:href="#bk"/><use transform="matrix(0.05,0,0,0.05,49.85,0)" xlink:href="#al"/><use transform="matrix(0.05,0,0,0.05,54.85,0)" xlink:href="#aB"/><use transform="matrix(0.05,0,0,0.05,58.800000000000004,0)" xlink:href="#ae"/><use transform="matrix(0.05,0,0,0.05,68.80000000000001,0)" xlink:href="#ak"/></g><path fill="#fff" d="M63-220v92h138v28H63V0H30v-248h175v28H63" id="bl"/><path fill="#fff" d="M84 4C-5 8 30-112 23-190h32v120c0 31 7 50 39 49 72-2 45-101 50-169h31l1 190h-30c-1-10 1-25-2-33-11 22-28 36-60 37" id="bm"/><g id="y"><use transform="matrix(0.05,0,0,0.05,0,0)" xlink:href="#bl"/><use transform="matrix(0.05,0,0,0.05,10.950000000000001,0)" xlink:href="#bm"/><use transform="matrix(0.05,0,0,0.05,20.950000000000003,0)" xlink:href="#ax"/><use transform="matrix(0.05,0,0,0.05,30.950000000000003,0)" xlink:href="#bb"/><use transform="matrix(0.05,0,0,0.05,39.95,0)" xlink:href="#ay"/><use transform="matrix(0.05,0,0,0.05,44.95,0)" xlink:href="#be"/><use transform="matrix(0.05,0,0,0.05,48.900000000000006,0)" xlink:href="#aR"/><use transform="matrix(0.05,0,0,0.05,58.900000000000006,0)" xlink:href="#ax"/></g><g id="z"><use transform="matrix(0.05,0,0,0.05,0,0)" xlink:href="#aB"/><use transform="matrix(0.05,0,0,0.05,3.95,0)" xlink:href="#ar"/></g><path d="M101-234c-31-9-42 10-38 44h38v23H63V0H32v-167H5v-23h27c-7-52 17-82 69-68v24" id="bn"/><path d="M84 4C-5 8 30-112 23-190h32v120c0 31 7 50 39 49 72-2 45-101 50-169h31l1 190h-30c-1-10 1-25-2-33-11 22-28 36-60 37" id="bo"/><g id="A"><use transform="matrix(0.05,0,0,0.05,0,0)" xlink:href="#bn"/><use transform="matrix(0.05,0,0,0.05,5,0)" xlink:href="#bo"/><use transform="matrix(0.05,0,0,0.05,15,0)" xlink:href="#ak"/><use transform="matrix(0.05,0,0,0.05,25,0)" xlink:href="#bk"/><use transform="matrix(0.05,0,0,0.05,34,0)" xlink:href="#al"/><use transform="matrix(0.05,0,0,0.05,39,0)" xlink:href="#aB"/><use transform="matrix(0.05,0,0,0.05,42.95,0)" xlink:href="#ae"/><use transform="matrix(0.05,0,0,0.05,52.95,0)" xlink:href="#ak"/></g><g id="B"><use transform="matrix(0.05,0,0,0.05,0,0)" xlink:href="#ae"/><use transform="matrix(0.05,0,0,0.05,10,0)" xlink:href="#bn"/></g><path d="M55-144c13 50 104 24 104 88C159 21 15 23 1-39l26-10c6 40 102 42 102-4-13-50-104-23-104-87 0-71 143-71 148-8l-29 4c-5-35-85-37-89 0" id="bp"/><g id="C"><use transform="matrix(0.05,0,0,0.05,0,0)" xlink:href="#aO"/><use transform="matrix(0.05,0,0,0.05,3.95,0)" xlink:href="#bp"/></g><path d="M67-162c32-53 139-36 121 50C175-51 163 2 97 4 68 4 52-11 42-31 38 6 28 39 22 75H-9l50-265h29c-1 10 0 20-3 28zm89 36c0-26-10-43-35-43-54 0-67 50-69 103-1 29 14 45 42 46 53 0 62-58 62-106" id="bq"/><path d="M76-167L44 0H12l33-167H18l4-23h27c3-47 25-81 82-69l-4 24c-35-8-44 15-46 45h37l-5 23H76" id="br"/><path d="M248-111c6-24 9-61-24-58-72 9-57 108-77 169h-31l26-142c3-37-50-30-64-10C52-115 50-51 37 0H6l36-190h30c-1 10-6 24-4 32 13-43 101-52 105 5 13-22 29-41 61-41 90 0 28 129 23 194h-31" id="bs"/><g id="D"><use transform="matrix(0.05,0,0,0.05,0,0)" xlink:href="#bq"/><use transform="matrix(0.05,0,0,0.05,10,0)" xlink:href="#aG"/><use transform="matrix(0.05,0,0,0.05,20,0)" xlink:href="#aF"/><use transform="matrix(0.05,0,0,0.05,25.950000000000003,0)" xlink:href="#br"/><use transform="matrix(0.05,0,0,0.05,30.950000000000003,0)" xlink:href="#aL"/><use transform="matrix(0.05,0,0,0.05,40.95,0)" xlink:href="#aF"/><use transform="matrix(0.05,0,0,0.05,46.900000000000006,0)" xlink:href="#bs"/><use transform="matrix(0.05,0,0,0.05,61.85,0)" xlink:href="#aG"/><use transform="matrix(0.05,0,0,0.05,71.85000000000001,0)" xlink:href="#aK"/></g><path d="M68-162c25-46 127-43 121 31C183-60 169 1 98 4 69 5 53-11 43-31L36 0H5l52-261h31zm88 36c2-27-9-43-34-43-55 0-70 51-70 103 0 29 15 45 43 46 52 0 58-58 61-106" id="bt"/><path d="M198-190L69 30C53 58 25 83-20 72c4-11-1-27 19-22 33-1 43-29 59-52L20-190h32L79-34l84-156h35" id="bu"/><g id="E"><use transform="matrix(0.05,0,0,0.05,0,0)" xlink:href="#bt"/><use transform="matrix(0.05,0,0,0.05,10,0)" xlink:href="#bu"/></g><path d="M115-194c53 0 69 39 70 98 0 66-23 100-70 100C84 3 66-7 56-30L54 0H23l1-261h32v101c10-23 28-34 59-34zm-8 174c40 0 45-34 45-75 0-40-5-75-45-74-42 0-51 32-51 76 0 43 10 73 51 73" id="bv"/><g id="F"><use transform="matrix(0.05,0,0,0.05,0,0)" xlink:href="#ae"/><use transform="matrix(0.05,0,0,0.05,10,0)" xlink:href="#ad"/><use transform="matrix(0.05,0,0,0.05,15.949999999999998,0)" xlink:href="#ai"/><use transform="matrix(0.05,0,0,0.05,25.950000000000003,0)" xlink:href="#ag"/><use transform="matrix(0.05,0,0,0.05,30.950000000000003,0)" xlink:href="#ar"/><use transform="matrix(0.05,0,0,0.05,39.95,0)" xlink:href="#bo"/><use transform="matrix(0.05,0,0,0.05,49.95,0)" xlink:href="#bv"/></g><g id="G"><use transform="matrix(0.05,0,0,0.05,0,0)" xlink:href="#az"/><use transform="matrix(0.05,0,0,0.05,14,0)" xlink:href="#ad"/><use transform="matrix(0.05,0,0,0.05,19.95,0)" xlink:href="#ai"/><use transform="matrix(0.05,0,0,0.05,29.950000000000003,0)" xlink:href="#aA"/><use transform="matrix(0.05,0,0,0.05,39.95,0)" xlink:href="#ak"/><use transform="matrix(0.05,0,0,0.05,49.95,0)" xlink:href="#aB"/><use transform="matrix(0.05,0,0,0.05,53.900000000000006,0)" xlink:href="#aC"/><use transform="matrix(0.05,0,0,0.05,62.900000000000006,0)" xlink:href="#aA"/><use transform="matrix(0.05,0,0,0.05,72.9,0)" xlink:href="#al"/><use transform="matrix(0.05,0,0,0.05,77.9,0)" xlink:href="#aB"/><use transform="matrix(0.05,0,0,0.05,81.85000000000001,0)" xlink:href="#ae"/><use transform="matrix(0.05,0,0,0.05,91.85000000000001,0)" xlink:href="#ak"/><use transform="matrix(0.05,0,0,0.05,101.85000000000001,0)" xlink:href="#az"/><use transform="matrix(0.05,0,0,0.05,115.85000000000001,0)" xlink:href="#bn"/></g><g id="H"><use transform="matrix(0.05,0,0,0.05,0,0)" xlink:href="#aI"/><use transform="matrix(0.05,0,0,0.05,10,0)" xlink:href="#aF"/><use transform="matrix(0.05,0,0,0.05,15.949999999999998,0)" xlink:href="#aG"/></g><g id="I"><use transform="matrix(0.05,0,0,0.05,0,0)" xlink:href="#bq"/><use transform="matrix(0.05,0,0,0.05,10,0)" xlink:href="#aI"/><use transform="matrix(0.05,0,0,0.05,20,0)" xlink:href="#aF"/><use transform="matrix(0.05,0,0,0.05,25.950000000000003,0)" xlink:href="#aJ"/></g><g id="J"><use transform="matrix(0.05,0,0,0.05,0,0)" xlink:href="#aL"/><use transform="matrix(0.05,0,0,0.05,10,0)" xlink:href="#br"/></g><g id="K"><use transform="matrix(0.05,0,0,0.05,0,0)" xlink:href="#as"/><use transform="matrix(0.05,0,0,0.05,10,0)" xlink:href="#bk"/><use transform="matrix(0.05,0,0,0.05,19,0)" xlink:href="#al"/><use transform="matrix(0.05,0,0,0.05,24,0)" xlink:href="#ag"/><use transform="matrix(0.05,0,0,0.05,29,0)" xlink:href="#bk"/><use transform="matrix(0.05,0,0,0.05,38,0)" xlink:href="#ad"/><use transform="matrix(0.05,0,0,0.05,43.95,0)" xlink:href="#aj"/><use transform="matrix(0.05,0,0,0.05,53.95,0)" xlink:href="#aA"/><use transform="matrix(0.05,0,0,0.05,63.95,0)" xlink:href="#al"/><use transform="matrix(0.05,0,0,0.05,68.95,0)" xlink:href="#ae"/><use transform="matrix(0.05,0,0,0.05,78.95,0)" xlink:href="#ad"/></g><path d="M44-68c0 29 11 47 38 47 30 0 42-19 51-41l28 9C148-21 126 4 82 4 31 4 10-29 12-85c3-77 74-140 146-93 12 8 15 23 18 40l-31 5c-1-22-13-36-36-36-52 0-65 49-65 101" id="bw"/><g id="L"><use transform="matrix(0.05,0,0,0.05,0,0)" xlink:href="#bw"/><use transform="matrix(0.05,0,0,0.05,9,0)" xlink:href="#aF"/><use transform="matrix(0.05,0,0,0.05,14.949999999999998,0)" xlink:href="#aG"/><use transform="matrix(0.05,0,0,0.05,24.95,0)" xlink:href="#aI"/><use transform="matrix(0.05,0,0,0.05,34.95,0)" xlink:href="#aJ"/><use transform="matrix(0.05,0,0,0.05,39.95,0)" xlink:href="#aG"/><use transform="matrix(0.05,0,0,0.05,49.95,0)" xlink:href="#aK"/></g><path d="M106-169C34-169 62-67 57 0H25v-261h32l-1 103c12-21 28-36 61-36 89 0 53 116 60 194h-32v-121c2-32-8-49-39-48" id="bx"/><g id="M"><use transform="matrix(0.05,0,0,0.05,0,0)" xlink:href="#as"/><use transform="matrix(0.05,0,0,0.05,10,0)" xlink:href="#bk"/><use transform="matrix(0.05,0,0,0.05,19,0)" xlink:href="#al"/><use transform="matrix(0.05,0,0,0.05,24,0)" xlink:href="#ag"/><use transform="matrix(0.05,0,0,0.05,29,0)" xlink:href="#bx"/><use transform="matrix(0.05,0,0,0.05,39,0)" xlink:href="#aA"/><use transform="matrix(0.05,0,0,0.05,49,0)" xlink:href="#ar"/><use transform="matrix(0.05,0,0,0.05,58,0)" xlink:href="#at"/><use transform="matrix(0.05,0,0,0.05,70,0)" xlink:href="#aA"/><use transform="matrix(0.05,0,0,0.05,80,0)" xlink:href="#ad"/><use transform="matrix(0.05,0,0,0.05,85.95,0)" xlink:href="#al"/></g><g id="N"><use transform="matrix(0.05,0,0,0.05,0,0)" xlink:href="#bw"/><use transform="matrix(0.05,0,0,0.05,9,0)" xlink:href="#aL"/><use transform="matrix(0.05,0,0,0.05,19,0)" xlink:href="#aN"/><use transform="matrix(0.05,0,0,0.05,29,0)" xlink:href="#aJ"/><use transform="matrix(0.05,0,0,0.05,34,0)" xlink:href="#aI"/><use transform="matrix(0.05,0,0,0.05,44,0)" xlink:href="#aO"/><use transform="matrix(0.05,0,0,0.05,47.95,0)" xlink:href="#aN"/><use transform="matrix(0.05,0,0,0.05,57.95,0)" xlink:href="#bp"/></g><path fill="#fff" d="M101-234c-31-9-42 10-38 44h38v23H63V0H32v-167H5v-23h27c-7-52 17-82 69-68v24" id="by"/><g id="O"><use transform="matrix(0.05,0,0,0.05,0,0)" xlink:href="#au"/><use transform="matrix(0.05,0,0,0.05,12,0)" xlink:href="#by"/><use transform="matrix(0.05,0,0,0.05,16.65,0)" xlink:href="#by"/><use transform="matrix(0.05,0,0,0.05,21.65,0)" xlink:href="#be"/><use transform="matrix(0.05,0,0,0.05,25.599999999999998,0)" xlink:href="#aV"/><use transform="matrix(0.05,0,0,0.05,29.549999999999997,0)" xlink:href="#be"/><use transform="matrix(0.05,0,0,0.05,33.5,0)" xlink:href="#aU"/><use transform="matrix(0.05,0,0,0.05,43.5,0)" xlink:href="#ay"/><use transform="matrix(0.05,0,0,0.05,48.5,0)" xlink:href="#be"/><use transform="matrix(0.05,0,0,0.05,52.45,0)" xlink:href="#aR"/><use transform="matrix(0.05,0,0,0.05,62.45,0)" xlink:href="#ax"/></g><path fill="#fff" d="M233-177c-1 41-23 64-60 70L243 0h-38l-65-103H63V0H30v-248c88 3 205-21 203 71zM63-129c60-2 137 13 137-47 0-61-80-42-137-45v92" id="bz"/><g id="P"><use transform="matrix(0.05,0,0,0.05,0,0)" xlink:href="#bz"/><use transform="matrix(0.05,0,0,0.05,12.950000000000001,0)" xlink:href="#aw"/><use transform="matrix(0.05,0,0,0.05,22.950000000000003,0)" xlink:href="#aV"/><use transform="matrix(0.05,0,0,0.05,26.900000000000002,0)" xlink:href="#aU"/><use transform="matrix(0.05,0,0,0.05,36.900000000000006,0)" xlink:href="#ay"/><use transform="matrix(0.05,0,0,0.05,41.900000000000006,0)" xlink:href="#be"/><use transform="matrix(0.05,0,0,0.05,45.85000000000001,0)" xlink:href="#aR"/><use transform="matrix(0.05,0,0,0.05,55.85,0)" xlink:href="#ax"/><use transform="matrix(0.05,0,0,0.05,65.85000000000001,0)" xlink:href="#aZ"/><use transform="matrix(0.05,0,0,0.05,74.85000000000001,0)" xlink:href="#aW"/><use transform="matrix(0.05,0,0,0.05,84.85000000000001,0)" xlink:href="#be"/><use transform="matrix(0.05,0,0,0.05,88.80000000000001,0)" xlink:href="#ba"/></g><g id="Q"><use transform="matrix(0.05,0,0,0.05,0,0)" xlink:href="#ae"/><use transform="matrix(0.05,0,0,0.05,10,0)" xlink:href="#ad"/><use transform="matrix(0.05,0,0,0.05,15.949999999999998,0)" xlink:href="#ai"/><use transform="matrix(0.05,0,0,0.05,25.950000000000003,0)" xlink:href="#ag"/></g><path d="M240 0l2-218c-23 76-54 145-80 218h-23L58-218 59 0H30v-248h44l77 211c21-75 51-140 76-211h43V0h-30" id="bA"/><g id="R"><use transform="matrix(0.05,0,0,0.05,0,0)" xlink:href="#bA"/><use transform="matrix(0.05,0,0,0.05,14.950000000000001,0)" xlink:href="#aj"/><use transform="matrix(0.05,0,0,0.05,24.950000000000003,0)" xlink:href="#ao"/><use transform="matrix(0.05,0,0,0.05,39.900000000000006,0)" xlink:href="#bv"/><use transform="matrix(0.05,0,0,0.05,49.900000000000006,0)" xlink:href="#aj"/><use transform="matrix(0.05,0,0,0.05,59.900000000000006,0)" xlink:href="#ad"/><use transform="matrix(0.05,0,0,0.05,65.85000000000001,0)" xlink:href="#ar"/><use transform="matrix(0.05,0,0,0.05,74.85000000000001,0)" xlink:href="#bx"/><use transform="matrix(0.05,0,0,0.05,84.85000000000001,0)" xlink:href="#aB"/><use transform="matrix(0.05,0,0,0.05,88.80000000000001,0)" xlink:href="#ac"/></g><g id="S"><use transform="matrix(0.05,0,0,0.05,0,0)" xlink:href="#au"/><use transform="matrix(0.05,0,0,0.05,12,0)" xlink:href="#bm"/><use transform="matrix(0.05,0,0,0.05,22,0)" xlink:href="#ay"/><use transform="matrix(0.05,0,0,0.05,27,0)" xlink:href="#aW"/><use transform="matrix(0.05,0,0,0.05,37,0)" xlink:href="#aR"/><use transform="matrix(0.05,0,0,0.05,47,0)" xlink:href="#aY"/><use transform="matrix(0.05,0,0,0.05,52.95,0)" xlink:href="#be"/><use transform="matrix(0.05,0,0,0.05,56.900000000000006,0)" xlink:href="#ay"/><use transform="matrix(0.05,0,0,0.05,61.900000000000006,0)" xlink:href="#bc"/></g><g id="T"><use transform="matrix(0.05,0,0,0.05,0,0)" xlink:href="#ao"/><use transform="matrix(0.05,0,0,0.05,14.950000000000001,0)" xlink:href="#aA"/><use transform="matrix(0.05,0,0,0.05,24.950000000000003,0)" xlink:href="#ak"/><use transform="matrix(0.05,0,0,0.05,34.95,0)" xlink:href="#as"/><use transform="matrix(0.05,0,0,0.05,44.95,0)" xlink:href="#aA"/><use transform="matrix(0.05,0,0,0.05,54.95,0)" xlink:href="#al"/><use transform="matrix(0.05,0,0,0.05,59.95,0)" xlink:href="#aj"/><use transform="matrix(0.05,0,0,0.05,69.95,0)" xlink:href="#as"/></g><g id="U"><use transform="matrix(0.05,0,0,0.05,0,0)" xlink:href="#bv"/><use transform="matrix(0.05,0,0,0.05,10,0)" xlink:href="#aq"/></g><g id="V"><use transform="matrix(0.05,0,0,0.05,0,0)" xlink:href="#aQ"/><use transform="matrix(0.05,0,0,0.05,12.950000000000001,0)" xlink:href="#bz"/><use transform="matrix(0.05,0,0,0.05,25.900000000000002,0)" xlink:href="#bj"/></g><g id="W"><use transform="matrix(0.05,0,0,0.05,0,0)" xlink:href="#aQ"/><use transform="matrix(0.05,0,0,0.05,12.950000000000001,0)" xlink:href="#aV"/><use transform="matrix(0.05,0,0,0.05,16.900000000000002,0)" xlink:href="#aU"/><use transform="matrix(0.05,0,0,0.05,26.900000000000002,0)" xlink:href="#aZ"/><use transform="matrix(0.05,0,0,0.05,35.900000000000006,0)" xlink:href="#aZ"/></g><g id="X"><use transform="matrix(0.05,0,0,0.05,0,0)" xlink:href="#ad"/><use transform="matrix(0.05,0,0,0.05,5.95,0)" xlink:href="#as"/><use transform="matrix(0.05,0,0,0.05,15.949999999999998,0)" xlink:href="#bn"/><use transform="matrix(0.05,0,0,0.05,20.95,0)" xlink:href="#ar"/><use transform="matrix(0.05,0,0,0.05,29.950000000000003,0)" xlink:href="#ag"/><use transform="matrix(0.05,0,0,0.05,34.95,0)" xlink:href="#ar"/><use transform="matrix(0.05,0,0,0.05,43.95,0)" xlink:href="#bo"/><use transform="matrix(0.05,0,0,0.05,53.95,0)" xlink:href="#bv"/><use transform="matrix(0.05,0,0,0.05,63.95,0)" xlink:href="#bh"/><use transform="matrix(0.05,0,0,0.05,76.9,0)" xlink:href="#an"/><use transform="matrix(0.05,0,0,0.05,80.85000000000001,0)" xlink:href="#aA"/><use transform="matrix(0.05,0,0,0.05,90.85000000000001,0)" xlink:href="#ar"/><use transform="matrix(0.05,0,0,0.05,99.85000000000001,0)" xlink:href="#ar"/><use transform="matrix(0.05,0,0,0.05,108.85000000000001,0)" xlink:href="#az"/><use transform="matrix(0.05,0,0,0.05,122.85000000000001,0)" xlink:href="#bn"/></g><g id="Y"><use transform="matrix(0.05,0,0,0.05,0,0)" xlink:href="#ad"/><use transform="matrix(0.05,0,0,0.05,5.95,0)" xlink:href="#as"/><use transform="matrix(0.05,0,0,0.05,15.949999999999998,0)" xlink:href="#bn"/><use transform="matrix(0.05,0,0,0.05,20.95,0)" xlink:href="#ag"/><use transform="matrix(0.05,0,0,0.05,25.950000000000003,0)" xlink:href="#al"/><use transform="matrix(0.05,0,0,0.05,30.950000000000003,0)" xlink:href="#aq"/><use transform="matrix(0.05,0,0,0.05,39.95,0)" xlink:href="#ac"/><use transform="matrix(0.05,0,0,0.05,49.95,0)" xlink:href="#aj"/></g><path d="M206 0h-36l-40-164L89 0H53L-1-190h32L70-26l43-164h34l41 164 42-164h31" id="bB"/><g id="Z"><use transform="matrix(0.05,0,0,0.05,0,0)" xlink:href="#ae"/><use transform="matrix(0.05,0,0,0.05,10,0)" xlink:href="#bB"/><use transform="matrix(0.05,0,0,0.05,22.950000000000003,0)" xlink:href="#an"/><use transform="matrix(0.05,0,0,0.05,26.900000000000002,0)" xlink:href="#ag"/><use transform="matrix(0.05,0,0,0.05,31.900000000000002,0)" xlink:href="#at"/><use transform="matrix(0.05,0,0,0.05,43.900000000000006,0)" xlink:href="#ad"/><use transform="matrix(0.05,0,0,0.05,49.85000000000001,0)" xlink:href="#ae"/><use transform="matrix(0.05,0,0,0.05,59.85,0)" xlink:href="#ac"/><use transform="matrix(0.05,0,0,0.05,69.85000000000001,0)" xlink:href="#aj"/><use transform="matrix(0.05,0,0,0.05,79.85000000000001,0)" xlink:href="#ad"/><use transform="matrix(0.05,0,0,0.05,85.80000000000001,0)" xlink:href="#al"/><use transform="matrix(0.05,0,0,0.05,90.80000000000001,0)" xlink:href="#aq"/></g><g id="aa"><use transform="matrix(0.05,0,0,0.05,0,0)" xlink:href="#bx"/><use transform="matrix(0.05,0,0,0.05,10,0)" xlink:href="#aA"/><use transform="matrix(0.05,0,0,0.05,20,0)" xlink:href="#ar"/></g><g id="ab"><use transform="matrix(0.05,0,0,0.05,0,0)" xlink:href="#aA"/><use transform="matrix(0.05,0,0,0.05,10,0)" xlink:href="#ai"/><use transform="matrix(0.05,0,0,0.05,20,0)" xlink:href="#aj"/><use transform="matrix(0.05,0,0,0.05,30,0)" xlink:href="#ak"/><use transform="matrix(0.05,0,0,0.05,40,0)" xlink:href="#al"/></g></defs></g></svg>